STARTFONT 2.1
FONT -FontForge-Futura-Medium-R-Normal--32-230-100-100-P-174-ISO10646-1
SIZE 23 100 100
FONTBOUNDINGBOX 58 43 -16 -9
COMMENT "Generated by fontforge, http://fontforge.sourceforge.net"
COMMENT "(c) Copyright 1998, Neufville Digital. ALL RIGHTS RESERVED. This font is licensed, not sold, and may not be reproduced without the written consent of Neufville Digital. Parts (c) Visualogik Technology & Design, 1998."
STARTPROPERTIES 40
FOUNDRY "FontForge"
FAMILY_NAME "Futura"
WEIGHT_NAME "Medium"
SLANT "R"
SETWIDTH_NAME "Normal"
ADD_STYLE_NAME ""
PIXEL_SIZE 32
POINT_SIZE 230
RESOLUTION_X 100
RESOLUTION_Y 100
SPACING "P"
AVERAGE_WIDTH 174
CHARSET_REGISTRY "ISO10646"
CHARSET_ENCODING "1"
FONTNAME_REGISTRY ""
CHARSET_COLLECTIONS "ISO8859-2 ISO8859-9 ISO8859-4 ISO10646-1"
FONT_NAME "Futura-Medium"
FACE_NAME "Futura Medium"
COPYRIGHT "(c) Copyright 1998, Neufville Digital. ALL RIGHTS RESERVED. This font is licensed, not sold, and may not be reproduced without the written consent of Neufville Digital. Parts (c) Visualogik Technology & Design, 1998."
FONT_VERSION "16.0d2e1"
FONT_ASCENT 26
FONT_DESCENT 6
UNDERLINE_POSITION -4
UNDERLINE_THICKNESS 3
X_HEIGHT 14
CAP_HEIGHT 23
RAW_ASCENT 799
RAW_DESCENT 200
NORM_SPACE 10
RELATIVE_WEIGHT 50
RELATIVE_SETWIDTH 50
SUPERSCRIPT_X 0
SUPERSCRIPT_Y 14
SUPERSCRIPT_SIZE 19
SUBSCRIPT_X 0
SUBSCRIPT_Y 2
SUBSCRIPT_SIZE 19
FIGURE_WIDTH 20
AVG_LOWERCASE_WIDTH 163
AVG_UPPERCASE_WIDTH 213
ENDPROPERTIES
CHARS 419
STARTCHAR .null
ENCODING 0
SWIDTH 0 0
DWIDTH 0 0
BBX 1 1 0 0
BITMAP
00
ENDCHAR
STARTCHAR controlBS
ENCODING 8
SWIDTH 0 0
DWIDTH 0 0
BBX 1 1 0 0
BITMAP
00
ENDCHAR
STARTCHAR controlHT
ENCODING 9
SWIDTH 308 0
DWIDTH 10 0
BBX 1 1 0 0
BITMAP
00
ENDCHAR
STARTCHAR controlCR
ENCODING 13
SWIDTH 500 0
DWIDTH 16 0
BBX 1 1 0 0
BITMAP
00
ENDCHAR
STARTCHAR controlGS
ENCODING 29
SWIDTH 0 0
DWIDTH 0 0
BBX 1 1 0 0
BITMAP
00
ENDCHAR
STARTCHAR space
ENCODING 32
SWIDTH 308 0
DWIDTH 10 0
BBX 1 1 0 0
BITMAP
00
ENDCHAR
STARTCHAR exclam
ENCODING 33
SWIDTH 331 0
DWIDTH 11 0
BBX 4 24 3 0
BITMAP
70
70
70
70
70
70
70
70
70
70
70
70
70
70
70
70
70
70
70
00
70
F0
F0
F0
ENDCHAR
STARTCHAR quotedbl
ENCODING 34
SWIDTH 410 0
DWIDTH 13 0
BBX 9 10 2 14
BITMAP
F780
F380
F380
E380
E380
E380
E380
E380
E380
E380
ENDCHAR
STARTCHAR numbersign
ENCODING 35
SWIDTH 617 0
DWIDTH 20 0
BBX 18 24 1 0
BITMAP
070600
070600
070E00
070E00
070E00
060E00
060E00
7FFFC0
7FFFC0
0E0C00
0E1C00
0E1C00
0E1C00
0C1C00
FFFF80
FFFF80
FFFF80
1C1800
1C3800
1C3800
1C3800
183800
383800
383800
ENDCHAR
STARTCHAR dollar
ENCODING 36
SWIDTH 617 0
DWIDTH 20 0
BBX 15 31 2 -3
BITMAP
01C0
01C0
01C0
01C0
0FF0
1FF8
3FFC
3C3E
3818
3800
3800
3C00
3E00
1F80
0FE0
03F8
00FC
007E
001E
000E
000E
F00E
F00E
F81E
7C3E
3FFC
3FF8
0FF0
01C0
01C0
01C0
ENDCHAR
STARTCHAR percent
ENCODING 37
SWIDTH 916 0
DWIDTH 29 0
BBX 27 24 1 0
BITMAP
1F801800
3FC01800
79E03000
F0F07000
E0706000
E070E000
E070C000
70E18000
7FE38000
3FC30000
0F070000
00060000
000C0000
000C1F00
00187F80
0038FBC0
0030E0E0
0070C0E0
0061C0E0
00C0C0E0
00C0E0E0
0180FBC0
03807F80
03003F00
ENDCHAR
STARTCHAR ampersand
ENCODING 38
SWIDTH 730 0
DWIDTH 23 0
BBX 21 25 2 0
BITMAP
008000
07F000
0FF800
1FFC00
1E1C00
1C1C00
1C1C00
1E3C00
0F7C00
0FF800
07F000
07C000
1FE000
3FF000
7CF840
787CE0
F03DE0
F01FE0
E01FC0
F00F80
F01FC0
783FE0
7FFDE0
3FF8F0
0FE0F8
ENDCHAR
STARTCHAR quotesingle
ENCODING 39
SWIDTH 231 0
DWIDTH 7 0
BBX 4 10 2 14
BITMAP
F0
F0
F0
E0
E0
E0
E0
E0
E0
E0
ENDCHAR
STARTCHAR parenleft
ENCODING 40
SWIDTH 366 0
DWIDTH 12 0
BBX 6 34 3 -7
BITMAP
10
1C
3C
3C
38
78
78
78
70
F0
F0
F0
F0
F0
F0
E0
E0
E0
E0
F0
F0
F0
F0
F0
F0
70
70
78
78
38
3C
3C
1C
10
ENDCHAR
STARTCHAR parenright
ENCODING 41
SWIDTH 366 0
DWIDTH 12 0
BBX 7 33 2 -7
BITMAP
F0
70
78
78
38
3C
3C
3C
1C
1C
1E
1E
1E
1E
1E
1E
1E
1E
1E
1E
1E
1E
1C
1C
3C
3C
3C
38
78
78
70
F0
10
ENDCHAR
STARTCHAR asterisk
ENCODING 42
SWIDTH 617 0
DWIDTH 20 0
BBX 12 11 4 15
BITMAP
0E00
0E00
0E00
F6F0
FFF0
FFE0
0F00
1F80
3BC0
79E0
3080
ENDCHAR
STARTCHAR plus
ENCODING 43
SWIDTH 617 0
DWIDTH 20 0
BBX 16 17 2 4
BITMAP
0380
0380
0380
0380
0380
0380
0380
FFFF
FFFF
FFFF
0380
0380
0380
0380
0380
0380
0380
ENDCHAR
STARTCHAR comma
ENCODING 44
SWIDTH 308 0
DWIDTH 10 0
BBX 6 9 1 -5
BITMAP
1C
1C
3C
38
78
70
70
E0
E0
ENDCHAR
STARTCHAR hyphen
ENCODING 45
SWIDTH 217 0
DWIDTH 7 0
BBX 7 3 0 6
BITMAP
FE
FE
FE
ENDCHAR
STARTCHAR period
ENCODING 46
SWIDTH 308 0
DWIDTH 10 0
BBX 4 4 3 0
BITMAP
60
F0
F0
F0
ENDCHAR
STARTCHAR slash
ENCODING 47
SWIDTH 518 0
DWIDTH 17 0
BBX 16 34 0 -7
BITMAP
0004
0007
0007
000F
000E
001E
001C
003C
003C
0038
0078
0070
00F0
00E0
01E0
01C0
01C0
03C0
0380
0780
0700
0F00
0E00
0E00
1E00
1C00
3C00
3800
7800
7000
7000
F000
E000
2000
ENDCHAR
STARTCHAR zero
ENCODING 48
SWIDTH 617 0
DWIDTH 20 0
BBX 17 25 1 0
BITMAP
004000
07F000
0FFC00
1FFE00
3E1E00
3C0F00
780F00
780780
700780
700780
F00380
F00380
F00380
F00380
F00380
F00380
700780
780780
780780
780F00
3C0F00
3E1E00
1FFE00
0FFC00
07F000
ENDCHAR
STARTCHAR one
ENCODING 49
SWIDTH 617 0
DWIDTH 20 0
BBX 7 24 5 0
BITMAP
7E
7E
FE
0E
0E
0E
0E
0E
0E
0E
0E
0E
0E
0E
0E
0E
0E
0E
0E
0E
0E
0E
0E
0E
ENDCHAR
STARTCHAR two
ENCODING 50
SWIDTH 617 0
DWIDTH 20 0
BBX 16 25 1 0
BITMAP
0180
0FF0
1FFC
3FFE
7C1E
780F
700F
700F
000F
000F
001E
001E
003C
007C
00F8
00F0
01E0
03C0
07C0
0F80
1F00
1E00
3FFF
7FFF
FFFF
ENDCHAR
STARTCHAR three
ENCODING 51
SWIDTH 617 0
DWIDTH 20 0
BBX 16 24 1 0
BITMAP
0FF0
1FFC
3FFC
3C3E
781E
780E
000E
000E
001E
007C
01FC
01F8
01FC
001E
000E
000F
000F
F00F
F00F
781E
7C3E
3FFC
1FF8
0FF0
ENDCHAR
STARTCHAR four
ENCODING 52
SWIDTH 617 0
DWIDTH 20 0
BBX 18 26 0 0
BITMAP
000100
000100
000300
000700
000700
000F00
001F00
001F00
003F00
007F00
007F00
00FF00
01EF00
01EF00
03CF00
078F00
0F0F00
0F0F00
1E0F00
3FFFC0
3FFFC0
7FFFC0
FFFFC0
000F00
000F00
000F00
ENDCHAR
STARTCHAR five
ENCODING 53
SWIDTH 617 0
DWIDTH 20 0
BBX 16 24 1 0
BITMAP
03FF
07FF
07FF
0700
0F00
0F00
0E00
0FC0
1FF8
1FFC
1EFE
301E
200F
000F
0007
0007
0007
000F
600F
F01E
F83E
7FFC
3FF8
1FE0
ENDCHAR
STARTCHAR six
ENCODING 54
SWIDTH 617 0
DWIDTH 20 0
BBX 16 25 2 0
BITMAP
0020
0078
0078
00F0
01E0
01E0
03C0
0780
0F00
0F00
1FF0
3FF8
7FFC
7C3E
F01E
F00F
E00F
E00F
E00F
F00F
F01E
7C3E
3FFC
1FF8
0FF0
ENDCHAR
STARTCHAR seven
ENCODING 55
SWIDTH 617 0
DWIDTH 20 0
BBX 17 25 2 -1
BITMAP
FFFF80
FFFF80
FFFF00
001E00
001E00
003C00
003C00
007800
00F000
00F000
01E000
01E000
03C000
078000
078000
0F0000
1F0000
1E0000
3C0000
3C0000
780000
F00000
F00000
E00000
200000
ENDCHAR
STARTCHAR eight
ENCODING 56
SWIDTH 617 0
DWIDTH 20 0
BBX 15 25 2 0
BITMAP
0100
0FF0
1FF8
3FFC
7C3C
781E
701E
700E
701E
781E
3C3C
3FF8
1FF0
3FFC
7C3C
781E
F00E
F00E
F00E
F00E
781E
7C3E
3FFC
1FF8
0FF0
ENDCHAR
STARTCHAR nine
ENCODING 57
SWIDTH 617 0
DWIDTH 20 0
BBX 16 25 2 0
BITMAP
0180
0FF0
3FF8
3FFC
783E
F01E
F00F
E00F
E00F
E00F
F00F
F81E
7C3E
3FFC
1FFC
0FF8
00F0
01E0
03E0
03C0
0780
0F00
1F00
1E00
1C00
ENDCHAR
STARTCHAR colon
ENCODING 58
SWIDTH 308 0
DWIDTH 10 0
BBX 4 16 3 0
BITMAP
60
F0
F0
F0
60
00
00
00
00
00
00
00
60
F0
F0
F0
ENDCHAR
STARTCHAR semicolon
ENCODING 59
SWIDTH 308 0
DWIDTH 10 0
BBX 7 21 1 -5
BITMAP
08
1E
1E
1E
0C
00
00
00
00
00
00
00
1C
1C
3C
38
78
70
70
E0
E0
ENDCHAR
STARTCHAR less
ENCODING 60
SWIDTH 617 0
DWIDTH 20 0
BBX 16 18 2 3
BITMAP
0003
000F
003F
00FE
03F8
0FE0
7F80
FE00
F000
F800
FF00
1FC0
07F0
01FC
007F
001F
0007
0001
ENDCHAR
STARTCHAR equal
ENCODING 61
SWIDTH 617 0
DWIDTH 20 0
BBX 16 7 2 9
BITMAP
FFFF
FFFF
0000
0000
0000
FFFF
FFFF
ENDCHAR
STARTCHAR greater
ENCODING 62
SWIDTH 617 0
DWIDTH 20 0
BBX 16 18 2 3
BITMAP
C000
F000
FC00
7F00
1FC0
07F0
01FC
007F
001F
003F
00FE
03F8
0FE0
3F80
FE00
F800
E000
8000
ENDCHAR
STARTCHAR question
ENCODING 63
SWIDTH 489 0
DWIDTH 16 0
BBX 12 24 2 0
BITMAP
3F80
7FC0
7FE0
F1E0
F0F0
E0F0
F0F0
03E0
0FE0
3FC0
7F00
7C00
F000
F0E0
71E0
7FE0
3FC0
1F80
0000
0000
0600
0F00
0F00
0F00
ENDCHAR
STARTCHAR at
ENCODING 64
SWIDTH 880 0
DWIDTH 28 0
BBX 24 25 2 0
BITMAP
000800
01FFC0
07FFF0
0F0078
1E001C
38000E
783806
70FEE7
E1FFE3
E3E7C3
E3C1C3
C781C3
C780C3
C781C3
E781C3
E381C7
E3C3C6
63FFDE
71FEFC
787C70
3C0000
1E0008
0F8078
07FFF8
01FFE0
ENDCHAR
STARTCHAR A
ENCODING 65
SWIDTH 740 0
DWIDTH 24 0
BBX 23 25 0 0
BITMAP
000800
001800
001800
003C00
003C00
007E00
007E00
00FF00
00FF00
01E780
01E780
03C3C0
03C3C0
0781C0
0781E0
0701E0
0FFFF0
0FFFF0
1FFFF8
1E0078
3C003C
3C003C
78001C
78001E
F0001E
ENDCHAR
STARTCHAR B
ENCODING 66
SWIDTH 591 0
DWIDTH 19 0
BBX 14 24 3 0
BITMAP
FF00
FFC0
FFE0
F1E0
F0F0
F0F0
F070
F070
F0F0
F1E0
FFE0
FFE0
FFF0
F1F8
F03C
F03C
F01C
F01C
F03C
F03C
F3F8
FFF8
FFE0
FFC0
ENDCHAR
STARTCHAR C
ENCODING 67
SWIDTH 700 0
DWIDTH 22 0
BBX 19 25 2 0
BITMAP
001800
01FF80
07FFE0
0FFFE0
1F81E0
3E0060
3C0000
780000
F00000
F00000
F00000
F00000
E00000
E00000
E00000
F00000
F00000
F00000
780000
7C0020
3E0060
1F81E0
0FFFE0
07FFE0
01FF80
ENDCHAR
STARTCHAR D
ENCODING 68
SWIDTH 726 0
DWIDTH 23 0
BBX 19 24 3 0
BITMAP
FFC000
FFF800
FFFC00
F0FE00
F01F00
F00F80
F00780
F003C0
F003C0
F001C0
F001C0
F001E0
F001E0
F001C0
F001C0
F003C0
F003C0
F00780
F00F80
F01F00
F1FE00
FFFC00
FFF800
FFC000
ENDCHAR
STARTCHAR E
ENCODING 69
SWIDTH 565 0
DWIDTH 18 0
BBX 13 24 3 0
BITMAP
FFF8
FFF8
FFF8
F000
F000
F000
F000
F000
F000
FFF8
FFF8
FFF8
FFF8
F000
F000
F000
F000
F000
F000
F000
F000
FFF8
FFF8
FFF8
ENDCHAR
STARTCHAR F
ENCODING 70
SWIDTH 508 0
DWIDTH 16 0
BBX 12 24 3 0
BITMAP
FFF0
FFF0
FFF0
F000
F000
F000
F000
F000
F000
FFF0
FFF0
FFF0
FFF0
F000
F000
F000
F000
F000
F000
F000
F000
F000
F000
F000
ENDCHAR
STARTCHAR G
ENCODING 71
SWIDTH 842 0
DWIDTH 27 0
BBX 23 25 2 0
BITMAP
001800
01FF80
07FFE0
0FFFF0
1F80F8
3E007C
7C0038
780010
F00000
F00000
F00000
E00000
E007FE
E007FE
E007FE
F007FE
F0001E
F0001E
78003C
7C003C
3E0078
1F81F8
0FFFF0
07FFE0
01FF80
ENDCHAR
STARTCHAR H
ENCODING 72
SWIDTH 733 0
DWIDTH 23 0
BBX 18 24 3 0
BITMAP
F003C0
F003C0
F003C0
F003C0
F003C0
F003C0
F003C0
F003C0
F003C0
FFFFC0
FFFFC0
FFFFC0
FFFFC0
F003C0
F003C0
F003C0
F003C0
F003C0
F003C0
F003C0
F003C0
F003C0
F003C0
F003C0
ENDCHAR
STARTCHAR I
ENCODING 73
SWIDTH 294 0
DWIDTH 9 0
BBX 4 24 3 0
BITMAP
F0
F0
F0
F0
F0
F0
F0
F0
F0
F0
F0
F0
F0
F0
F0
F0
F0
F0
F0
F0
F0
F0
F0
F0
ENDCHAR
STARTCHAR J
ENCODING 74
SWIDTH 410 0
DWIDTH 13 0
BBX 10 24 0 0
BITMAP
01C0
01C0
01C0
01C0
01C0
01C0
01C0
01C0
01C0
01C0
01C0
01C0
01C0
01C0
01C0
01C0
01C0
03C0
03C0
03C0
47C0
FF80
FF00
FE00
ENDCHAR
STARTCHAR K
ENCODING 75
SWIDTH 662 0
DWIDTH 21 0
BBX 17 24 3 0
BITMAP
F00F80
F01F00
F03E00
F07C00
F0F800
F1F000
F3E000
F7C000
FF8000
FF0000
FE0000
FE0000
FF0000
FF8000
F7C000
F3E000
F1F000
F0F000
F07800
F07C00
F03E00
F01F00
F00F80
F00780
ENDCHAR
STARTCHAR L
ENCODING 76
SWIDTH 443 0
DWIDTH 14 0
BBX 11 24 3 0
BITMAP
F000
F000
F000
F000
F000
F000
F000
F000
F000
F000
F000
F000
F000
F000
F000
F000
F000
F000
F000
F000
F000
FFE0
FFE0
FFE0
ENDCHAR
STARTCHAR M
ENCODING 77
SWIDTH 961 0
DWIDTH 31 0
BBX 26 26 2 -1
BITMAP
04000400
04000400
0E000E00
0E000E00
0F001E00
0F001E00
0F001E00
1F803E00
1F803F00
1FC07F00
1FC07F00
1DE0F700
3DE0F700
3CE1E780
3CF1E780
3C73C780
387BC780
783B8380
783F8380
783F03C0
781F03C0
701E03C0
700E03C0
F00E01C0
F00401C0
00040000
ENDCHAR
STARTCHAR N
ENCODING 78
SWIDTH 844 0
DWIDTH 27 0
BBX 21 26 3 -1
BITMAP
800000
C00078
E00078
F00078
F80078
FC0078
FE0078
FF0078
FF8078
F7C078
F3E078
F1F078
F0F878
F07C78
F03C78
F01E78
F00F78
F007F8
F007F8
F003F8
F001F8
F000F8
F00078
F00038
F00018
000008
ENDCHAR
STARTCHAR O
ENCODING 79
SWIDTH 893 0
DWIDTH 29 0
BBX 25 25 2 0
BITMAP
00080000
01FFC000
07FFE000
0FFFF800
1F80FC00
3E003C00
7C001E00
78000F00
F0000F00
F0000700
F0000780
E0000780
E0000780
E0000780
E0000780
F0000780
F0000700
F8000F00
78001F00
7C001E00
3E007C00
1F81F800
0FFFF000
07FFE000
01FF8000
ENDCHAR
STARTCHAR P
ENCODING 80
SWIDTH 540 0
DWIDTH 17 0
BBX 13 24 3 0
BITMAP
FF80
FFE0
FFF0
F1F8
F078
F038
F038
F038
F038
F078
F1F8
FFF0
FFE0
FF80
F000
F000
F000
F000
F000
F000
F000
F000
F000
F000
ENDCHAR
STARTCHAR Q
ENCODING 81
SWIDTH 893 0
DWIDTH 29 0
BBX 25 25 2 0
BITMAP
00180000
01FF8000
07FFE000
0FFFF800
1F80FC00
3E003C00
7C001E00
78000F00
F0000F00
F0000700
F0000780
E0000780
E0000780
E0000780
E0000780
F01E0780
F00F0700
F0078F00
7803DF00
7C01FE00
3E00FC00
1F81FC00
0FFFFC00
07FFFE00
01FF8F00
ENDCHAR
STARTCHAR R
ENCODING 82
SWIDTH 602 0
DWIDTH 19 0
BBX 15 24 3 0
BITMAP
FF80
FFE0
FFF0
F1F8
F078
F038
F038
F038
F038
F078
F0F8
FFF0
FFE0
FF80
FF80
F780
F3C0
F1E0
F1F0
F0F0
F078
F07C
F03C
F01E
ENDCHAR
STARTCHAR S
ENCODING 83
SWIDTH 583 0
DWIDTH 19 0
BBX 15 25 2 0
BITMAP
0180
0FF0
1FF8
3FFC
7C3C
7818
7000
7800
7800
7E00
3F80
1FE0
07F8
01FC
007C
001E
001E
001E
F01E
F01E
F01E
783C
7FFC
3FF8
1FE0
ENDCHAR
STARTCHAR T
ENCODING 84
SWIDTH 482 0
DWIDTH 15 0
BBX 15 24 0 0
BITMAP
FFFE
FFFE
FFFE
03C0
03C0
03C0
03C0
03C0
03C0
03C0
03C0
03C0
03C0
03C0
03C0
03C0
03C0
03C0
03C0
03C0
03C0
03C0
03C0
03C0
ENDCHAR
STARTCHAR U
ENCODING 85
SWIDTH 738 0
DWIDTH 24 0
BBX 18 24 3 0
BITMAP
F003C0
F003C0
F003C0
F003C0
F003C0
F003C0
F003C0
F003C0
F003C0
F003C0
F003C0
F003C0
F003C0
F003C0
F003C0
F003C0
F003C0
F003C0
F00780
780780
7C1F00
3FFF00
1FFE00
07F800
ENDCHAR
STARTCHAR V
ENCODING 86
SWIDTH 676 0
DWIDTH 22 0
BBX 21 25 0 -1
BITMAP
F00078
780078
7800F0
3C00F0
3C00F0
3C01E0
1E01E0
1E03C0
0F03C0
0F03C0
0F0780
078780
078F00
03CF00
03CE00
03DE00
01FE00
01FC00
00FC00
00F800
007800
007800
007000
003000
002000
ENDCHAR
STARTCHAR W
ENCODING 87
SWIDTH 1060 0
DWIDTH 34 0
BBX 34 25 0 -1
BITMAP
F000C003C0
7800C00780
7801C00780
3801E00F00
3C01E00F00
3C03E00E00
1E03F01E00
1E03F01E00
0E07F03C00
0F07783C00
0F0F387800
078F3C7800
078E3C7800
039E1CF000
03DE1EF000
03DC1FE000
01FC0FE000
01F80FC000
00F80FC000
00F807C000
00F0078000
0070038000
0070030000
0020030000
0020000000
ENDCHAR
STARTCHAR X
ENCODING 88
SWIDTH 617 0
DWIDTH 20 0
BBX 18 24 1 0
BITMAP
7803C0
780780
3C0F00
3C0F00
1E1E00
0F1E00
0F3C00
07F800
07F800
03F000
03F000
01E000
03F000
03F000
07F800
0FF800
0F3C00
1E1E00
1E1E00
3C0F00
7C0F00
780780
F007C0
F003C0
ENDCHAR
STARTCHAR Y
ENCODING 89
SWIDTH 600 0
DWIDTH 19 0
BBX 19 24 0 0
BITMAP
F001E0
7803C0
7C03C0
3C0780
1E0F80
1E0F00
0F1F00
0F1E00
07BC00
07FC00
03F800
01F800
01F000
00E000
00E000
00E000
00E000
00E000
00E000
00E000
00E000
00E000
00E000
00E000
ENDCHAR
STARTCHAR Z
ENCODING 90
SWIDTH 625 0
DWIDTH 20 0
BBX 18 24 1 0
BITMAP
3FFFC0
3FFF80
3FFF00
000F00
001E00
001E00
003C00
007C00
007800
00F000
00F000
01E000
01E000
03C000
07C000
078000
0F0000
0F0000
1E0000
1E0000
3C0000
7FFFC0
7FFFC0
FFFFC0
ENDCHAR
STARTCHAR bracketleft
ENCODING 91
SWIDTH 357 0
DWIDTH 11 0
BBX 7 32 3 -6
BITMAP
FE
FE
FE
F0
F0
F0
F0
F0
F0
F0
F0
F0
F0
F0
F0
F0
F0
F0
F0
F0
F0
F0
F0
F0
F0
F0
F0
F0
F0
FE
FE
FE
ENDCHAR
STARTCHAR backslash
ENCODING 92
SWIDTH 518 0
DWIDTH 17 0
BBX 16 32 0 -6
BITMAP
F000
F000
7000
7800
3800
3C00
1C00
1E00
0E00
0E00
0F00
0700
0780
0380
03C0
01C0
01C0
01E0
00E0
00F0
0070
0078
0038
0038
003C
001C
001E
000E
000F
0007
0007
0007
ENDCHAR
STARTCHAR bracketright
ENCODING 93
SWIDTH 357 0
DWIDTH 11 0
BBX 6 32 2 -6
BITMAP
FC
FC
FC
1C
1C
1C
1C
1C
1C
1C
1C
1C
1C
1C
1C
1C
1C
1C
1C
1C
1C
1C
1C
1C
1C
1C
1C
1C
1C
FC
FC
FC
ENDCHAR
STARTCHAR asciicircum
ENCODING 94
SWIDTH 565 0
DWIDTH 18 0
BBX 16 11 1 13
BITMAP
07E0
07E0
0FF0
0FF0
1E78
1E38
3C3C
381E
781E
700F
F00F
ENDCHAR
STARTCHAR underscore
ENCODING 95
SWIDTH 565 0
DWIDTH 18 0
BBX 18 3 0 -5
BITMAP
FFFFC0
FFFFC0
FFFFC0
ENDCHAR
STARTCHAR grave
ENCODING 96
SWIDTH 565 0
DWIDTH 18 0
BBX 7 6 3 18
BITMAP
30
F8
7C
1C
0E
06
ENDCHAR
STARTCHAR a
ENCODING 97
SWIDTH 599 0
DWIDTH 19 0
BBX 16 16 1 0
BITMAP
0380
0FEF
1FFF
3FFF
7C1F
780F
700F
7007
F007
7007
700F
780F
7C1F
3FFF
1FFF
0FEF
ENDCHAR
STARTCHAR b
ENCODING 98
SWIDTH 599 0
DWIDTH 19 0
BBX 16 26 2 0
BITMAP
F000
F000
F000
F000
F000
F000
F000
F000
F000
F000
F1C0
F7F0
FFFC
FFFC
F83E
F01E
F00F
F00F
F00F
F00F
F00E
F01E
F83E
FFFC
FFF8
F7F0
ENDCHAR
STARTCHAR c
ENCODING 99
SWIDTH 476 0
DWIDTH 15 0
BBX 13 16 1 0
BITMAP
01C0
0FF8
1FF8
3FF8
7C18
7800
7000
7000
F000
7000
7000
7808
3C18
3FF8
1FF8
07F8
ENDCHAR
STARTCHAR d
ENCODING 100
SWIDTH 599 0
DWIDTH 19 0
BBX 16 26 1 0
BITMAP
000F
000F
000F
000F
000F
000F
000F
000F
000F
000F
038F
0FEF
1FFF
3FFF
7C1F
780F
700F
7007
F007
7007
700F
780F
7C1F
3FFF
1FFF
0FEF
ENDCHAR
STARTCHAR e
ENCODING 101
SWIDTH 553 0
DWIDTH 18 0
BBX 15 16 1 0
BITMAP
0380
0FF0
1FF8
3FFC
783C
781E
7FFE
7FFE
FFFE
7000
7008
781C
7C1E
3FFC
1FF8
0FF0
ENDCHAR
STARTCHAR f
ENCODING 102
SWIDTH 296 0
DWIDTH 10 0
BBX 9 27 1 0
BITMAP
0700
1F80
3F80
3F80
7800
7800
7800
7800
7800
7800
7800
7800
FF80
FF80
FF80
7800
7800
7800
7800
7800
7800
7800
7800
7800
7800
7800
7800
ENDCHAR
STARTCHAR g
ENCODING 103
SWIDTH 598 0
DWIDTH 19 0
BBX 16 24 1 -8
BITMAP
0380
0FEF
1FFF
3FFF
7C1F
780F
700F
700F
F007
700F
700F
780F
7C1F
3FFF
1FFF
0FEF
000F
000F
780F
780F
3C1E
3FFE
1FFC
07F0
ENDCHAR
STARTCHAR h
ENCODING 104
SWIDTH 548 0
DWIDTH 18 0
BBX 13 26 2 0
BITMAP
F000
F000
F000
F000
F000
F000
F000
F000
F000
F000
F180
FFE0
FFF0
FFF8
F878
F038
F038
F038
F038
F038
F038
F038
F038
F038
F038
F038
ENDCHAR
STARTCHAR i
ENCODING 105
SWIDTH 249 0
DWIDTH 8 0
BBX 4 24 2 0
BITMAP
60
F0
F0
F0
60
00
00
00
00
F0
F0
F0
F0
F0
F0
F0
F0
F0
F0
F0
F0
F0
F0
F0
ENDCHAR
STARTCHAR j
ENCODING 106
SWIDTH 249 0
DWIDTH 8 0
BBX 4 32 2 -8
BITMAP
60
F0
F0
F0
60
00
00
00
00
F0
F0
F0
F0
F0
F0
F0
F0
F0
F0
F0
F0
F0
F0
F0
F0
F0
F0
F0
F0
F0
F0
F0
ENDCHAR
STARTCHAR k
ENCODING 107
SWIDTH 498 0
DWIDTH 16 0
BBX 14 26 2 0
BITMAP
F000
F000
F000
F000
F000
F000
F000
F000
F000
F000
F000
F0F8
F1F0
F3E0
F7C0
FF80
FF00
FE00
FF00
FF80
F780
F3C0
F1E0
F1F0
F0F8
F07C
ENDCHAR
STARTCHAR l
ENCODING 108
SWIDTH 249 0
DWIDTH 8 0
BBX 4 26 2 0
BITMAP
F0
F0
F0
F0
F0
F0
F0
F0
F0
F0
F0
F0
F0
F0
F0
F0
F0
F0
F0
F0
F0
F0
F0
F0
F0
F0
ENDCHAR
STARTCHAR m
ENCODING 109
SWIDTH 791 0
DWIDTH 25 0
BBX 21 16 2 0
BITMAP
018180
FFE7E0
FFEFF0
FFFFF8
F8F878
F07878
F07838
F07038
F07038
F07038
F07038
F07038
F07038
F07038
F07038
F07038
ENDCHAR
STARTCHAR n
ENCODING 110
SWIDTH 548 0
DWIDTH 18 0
BBX 13 16 2 0
BITMAP
0180
F7E0
FFF0
FFF8
F878
F038
F038
F038
F038
F038
F038
F038
F038
F038
F038
F038
ENDCHAR
STARTCHAR o
ENCODING 111
SWIDTH 601 0
DWIDTH 19 0
BBX 17 16 1 0
BITMAP
01C000
0FF800
1FFC00
3FFE00
7C1F00
780F00
700780
700780
F00780
700780
700700
780F00
3C1F00
3FFE00
1FFC00
07F000
ENDCHAR
STARTCHAR p
ENCODING 112
SWIDTH 599 0
DWIDTH 19 0
BBX 16 24 2 -8
BITMAP
01C0
F7F0
FFF8
FFFC
F83E
F01E
F00E
F00F
F00F
F00F
F00E
F01E
F83E
FFFC
FFF8
F7F0
F000
F000
F000
F000
F000
F000
F000
F000
ENDCHAR
STARTCHAR q
ENCODING 113
SWIDTH 599 0
DWIDTH 19 0
BBX 16 24 1 -8
BITMAP
0380
0FEF
1FFF
3FFF
7C1F
780F
700F
7007
F007
7007
700F
780F
7C1F
3FFF
1FFF
0FEF
000F
000F
000F
000F
000F
000F
000F
000F
ENDCHAR
STARTCHAR r
ENCODING 114
SWIDTH 374 0
DWIDTH 12 0
BBX 10 16 2 0
BITMAP
0100
FFC0
FFC0
FF80
F800
F000
F000
F000
F000
F000
F000
F000
F000
F000
F000
F000
ENDCHAR
STARTCHAR s
ENCODING 115
SWIDTH 405 0
DWIDTH 13 0
BBX 10 16 2 0
BITMAP
0C00
3F00
7F80
FF80
E200
F000
FC00
7F00
3F80
0FC0
03C0
03C0
E3C0
FFC0
FF80
7F00
ENDCHAR
STARTCHAR t
ENCODING 116
SWIDTH 273 0
DWIDTH 9 0
BBX 8 21 1 0
BITMAP
78
78
78
78
78
78
FF
FF
FF
78
78
78
78
78
78
78
78
78
78
78
78
ENDCHAR
STARTCHAR u
ENCODING 117
SWIDTH 544 0
DWIDTH 17 0
BBX 13 15 2 0
BITMAP
F038
F038
F038
F038
F038
F038
F038
F038
F038
F038
F078
7878
7FF0
3FF0
1FC0
ENDCHAR
STARTCHAR v
ENCODING 118
SWIDTH 502 0
DWIDTH 16 0
BBX 15 15 1 0
BITMAP
E01E
F03C
F03C
7878
7878
3CF0
3CF0
1FE0
1FE0
0FC0
0FC0
0780
0780
0300
0300
ENDCHAR
STARTCHAR w
ENCODING 119
SWIDTH 773 0
DWIDTH 25 0
BBX 23 17 1 -1
BITMAP
001000
E0301E
F0381E
F0383C
787C3C
787C38
3CFC78
3CFE70
1EEEF0
1FCFE0
0FC7E0
0FC7C0
0783C0
078380
030380
030100
000100
ENDCHAR
STARTCHAR x
ENCODING 120
SWIDTH 558 0
DWIDTH 18 0
BBX 16 15 1 0
BITMAP
781E
3C3C
1E7C
1F78
0FF0
07E0
03C0
07E0
0FF0
0FF0
1E78
3C3C
781E
F81F
F00F
ENDCHAR
STARTCHAR y
ENCODING 121
SWIDTH 543 0
DWIDTH 17 0
BBX 16 23 1 -8
BITMAP
F00F
F01E
781E
783C
3C3C
3C78
1E78
1EF0
0FF0
07E0
07E0
03C0
03C0
0780
0780
0F00
0F00
1E00
1E00
3C00
3C00
7800
F800
ENDCHAR
STARTCHAR z
ENCODING 122
SWIDTH 543 0
DWIDTH 17 0
BBX 16 15 1 0
BITMAP
7FFF
7FFE
7FFC
0078
00F0
01E0
03E0
07C0
0780
0F00
1E00
3C00
7FFE
7FFE
FFFE
ENDCHAR
STARTCHAR braceleft
ENCODING 123
SWIDTH 357 0
DWIDTH 11 0
BBX 9 34 1 -7
BITMAP
0380
0F80
1F80
1F80
1C00
1C00
1C00
1C00
1C00
1C00
1C00
1C00
3C00
3C00
3C00
FC00
F800
F800
7C00
3C00
3C00
1C00
1C00
1C00
1C00
1C00
1C00
1C00
1C00
1C00
1F80
1F80
0F80
0380
ENDCHAR
STARTCHAR bar
ENCODING 124
SWIDTH 565 0
DWIDTH 18 0
BBX 4 30 7 -6
BITMAP
F0
F0
F0
F0
F0
F0
F0
F0
F0
F0
F0
F0
F0
F0
F0
F0
F0
F0
F0
F0
F0
F0
F0
F0
F0
F0
F0
F0
F0
F0
ENDCHAR
STARTCHAR braceright
ENCODING 125
SWIDTH 357 0
DWIDTH 11 0
BBX 8 34 2 -7
BITMAP
E0
F8
F8
FC
3C
3C
3C
3C
3C
3C
3C
3C
3C
3C
3C
1F
0F
0F
1F
3C
3C
3C
3C
3C
3C
3C
3C
3C
3C
3C
FC
FC
F8
E0
ENDCHAR
STARTCHAR asciitilde
ENCODING 126
SWIDTH 753 0
DWIDTH 24 0
BBX 17 6 4 21
BITMAP
1C0100
3F0380
7FFF00
FFFF00
E1FE00
C07C00
ENDCHAR
STARTCHAR nonbreakingspace
ENCODING 160
SWIDTH 308 0
DWIDTH 10 0
BBX 1 1 0 0
BITMAP
00
ENDCHAR
STARTCHAR exclamdown
ENCODING 161
SWIDTH 331 0
DWIDTH 11 0
BBX 4 25 3 -6
BITMAP
70
F0
F0
70
00
00
70
70
70
70
70
70
70
70
70
70
70
70
70
70
70
70
70
70
70
ENDCHAR
STARTCHAR cent
ENCODING 162
SWIDTH 617 0
DWIDTH 20 0
BBX 12 22 3 1
BITMAP
0380
0380
0380
07E0
1FF0
3FF0
7C30
7810
F000
F000
F000
E000
F000
F000
7810
7E70
3FF0
1FF0
07E0
0380
0380
0380
ENDCHAR
STARTCHAR sterling
ENCODING 163
SWIDTH 617 0
DWIDTH 20 0
BBX 18 25 1 0
BITMAP
004000
07FC00
0FFE00
1FFF00
3E0F00
3C0780
3C0780
380380
380380
380000
3C0000
3C0000
1E0000
FFF000
FFF000
FFF000
070000
078000
078000
070000
1F8180
7FE3C0
FFFF80
FBFF80
607F00
ENDCHAR
STARTCHAR currency
ENCODING 164
SWIDTH 617 0
DWIDTH 20 0
BBX 21 21 -1 3
BITMAP
200010
700038
78FC78
3FFFF0
1FFFE0
0F87C0
1E03E0
1C01E0
3C00E0
3800F0
3800F0
3800F0
3C00E0
1C00E0
1E01E0
0F03C0
1FFFE0
3FFFF0
79FE78
F00038
600010
ENDCHAR
STARTCHAR yen
ENCODING 165
SWIDTH 617 0
DWIDTH 20 0
BBX 18 24 1 0
BITMAP
F003C0
700780
780780
3C0F00
3C0F00
1E1E00
1E3C00
0F3C00
FF7FC0
FFFFC0
07F000
03F000
01E000
FFFFC0
FFFFC0
FFFFC0
01E000
01E000
01E000
01E000
01E000
01E000
01E000
01E000
ENDCHAR
STARTCHAR brokenbar
ENCODING 166
SWIDTH 565 0
DWIDTH 18 0
BBX 4 30 7 -6
BITMAP
F0
F0
F0
F0
F0
F0
F0
F0
F0
F0
F0
F0
00
00
00
00
00
00
F0
F0
F0
F0
F0
F0
F0
F0
F0
F0
F0
F0
ENDCHAR
STARTCHAR section
ENCODING 167
SWIDTH 617 0
DWIDTH 20 0
BBX 14 34 3 -7
BITMAP
0180
1FE0
3FF0
7FF8
783C
703C
701C
701C
7000
7C00
3F00
1FE0
3FF0
7CF8
F03C
F03C
E01C
E01C
F03C
F87C
7FF8
3FF0
0FE0
03F0
00F8
0078
0038
E038
F038
F078
7FF8
7FF0
3FE0
0700
ENDCHAR
STARTCHAR dieresis
ENCODING 168
SWIDTH 565 0
DWIDTH 18 0
BBX 11 4 4 18
BITMAP
E1C0
F3E0
F3C0
E1C0
ENDCHAR
STARTCHAR copyright
ENCODING 169
SWIDTH 857 0
DWIDTH 27 0
BBX 25 25 1 0
BITMAP
001C0000
01FFC000
03C1F000
0F003800
1C001C00
180C0E00
307F8600
70FFC300
61E0C300
63C04180
C3800180
C3000180
C7000180
C7000180
C3000180
C3800180
63C04180
61E1C300
70FFC300
307F8600
18000E00
0C001C00
07003800
03E1F000
00FFC000
ENDCHAR
STARTCHAR ordfeminine
ENCODING 170
SWIDTH 409 0
DWIDTH 13 0
BBX 10 10 1 14
BITMAP
1EC0
3FC0
71C0
60C0
E0C0
E0C0
60C0
71C0
3FC0
1EC0
ENDCHAR
STARTCHAR guillemotleft
ENCODING 171
SWIDTH 575 0
DWIDTH 18 0
BBX 14 16 2 0
BITMAP
0400
061C
0E3C
1E38
3C78
38F0
71E0
F1C0
E3C0
F1E0
78F0
3C70
1C78
0E3C
0E1C
0408
ENDCHAR
STARTCHAR logicalnot
ENCODING 172
SWIDTH 565 0
DWIDTH 18 0
BBX 16 10 1 0
BITMAP
FFFF
FFFF
FFFF
FFFF
000F
000F
000F
000F
000F
000F
ENDCHAR
STARTCHAR softhyphen
ENCODING 173
SWIDTH 217 0
DWIDTH 7 0
BBX 7 3 0 6
BITMAP
FE
FE
FE
ENDCHAR
STARTCHAR registered
ENCODING 174
SWIDTH 857 0
DWIDTH 27 0
BBX 25 25 1 0
BITMAP
001C0000
01FFC000
03C1F000
0F003800
1C001C00
18000E00
30FE0600
70FF0300
60E78300
60E38180
C0E38180
C0E38180
C0FF0180
C0FE0180
C0FC0180
C0EE0180
60E70180
60E78300
70E38300
30E1C600
18000E00
0C001C00
07003800
03E1F000
00FFC000
ENDCHAR
STARTCHAR macron
ENCODING 175
SWIDTH 565 0
DWIDTH 18 0
BBX 11 3 4 18
BITMAP
FFE0
FFE0
FFE0
ENDCHAR
STARTCHAR degree
ENCODING 176
SWIDTH 641 0
DWIDTH 21 0
BBX 10 9 5 15
BITMAP
3F00
7F80
71C0
E0C0
E0C0
60C0
71C0
3F80
1F00
ENDCHAR
STARTCHAR plusminus
ENCODING 177
SWIDTH 617 0
DWIDTH 20 0
BBX 16 21 2 0
BITMAP
0380
0380
0380
0380
0380
0380
0380
FFFF
FFFF
FFFF
0380
0380
0380
0380
0380
0380
0000
0000
FFFF
FFFF
FFFF
ENDCHAR
STARTCHAR twosuperior
ENCODING 178
SWIDTH 437 0
DWIDTH 14 0
BBX 9 14 2 10
BITMAP
3F00
7F80
E380
C180
0180
0180
0380
0700
0E00
1C00
3C00
3800
7F80
FF80
ENDCHAR
STARTCHAR threesuperior
ENCODING 179
SWIDTH 437 0
DWIDTH 14 0
BBX 9 15 2 9
BITMAP
3E00
7F00
E380
E180
0380
0780
0F00
0F00
0380
0180
C180
C380
FF80
7F00
0800
ENDCHAR
STARTCHAR acute
ENCODING 180
SWIDTH 565 0
DWIDTH 18 0
BBX 7 6 8 18
BITMAP
1C
3E
7C
78
F0
C0
ENDCHAR
STARTCHAR mu
ENCODING 181
SWIDTH 544 0
DWIDTH 17 0
BBX 13 23 2 -8
BITMAP
F038
F038
F038
F038
F038
F038
F038
F038
F038
F038
F078
F878
FFF0
FFF0
FFC0
F000
F000
F000
F000
F000
F000
F000
F000
ENDCHAR
STARTCHAR paragraph
ENCODING 182
SWIDTH 617 0
DWIDTH 20 0
BBX 17 27 1 -3
BITMAP
1FFF80
7FFF80
FFFF00
FF8E00
FF8E00
FF8E00
FF8E00
FF8E00
FF8E00
7F8E00
7F8E00
1F8E00
038E00
038E00
038E00
038E00
038E00
038E00
038E00
038E00
038E00
038E00
038E00
038E00
038E00
038E00
038E00
ENDCHAR
STARTCHAR periodcentered
ENCODING 183
SWIDTH 308 0
DWIDTH 10 0
BBX 4 4 3 10
BITMAP
F0
F0
F0
E0
ENDCHAR
STARTCHAR cedilla
ENCODING 184
SWIDTH 565 0
DWIDTH 18 0
BBX 6 6 6 -8
BITMAP
18
3C
38
70
F0
20
ENDCHAR
STARTCHAR onesuperior
ENCODING 185
SWIDTH 437 0
DWIDTH 14 0
BBX 5 14 4 10
BITMAP
F8
F8
38
38
38
38
38
38
38
38
38
38
38
38
ENDCHAR
STARTCHAR ordmasculine
ENCODING 186
SWIDTH 410 0
DWIDTH 13 0
BBX 11 10 1 14
BITMAP
1F00
3F80
71C0
60C0
E0E0
E0E0
60C0
71C0
3F80
0E00
ENDCHAR
STARTCHAR guillemotright
ENCODING 187
SWIDTH 575 0
DWIDTH 18 0
BBX 15 15 2 0
BITMAP
61C0
F1E0
78E0
38F0
1C78
1E3C
0F1C
0F1E
0E3C
1E38
3C70
78F0
71E0
E1C0
2080
ENDCHAR
STARTCHAR onequarter
ENCODING 188
SWIDTH 967 0
DWIDTH 31 0
BBX 27 24 3 0
BITMAP
78003000
F8007000
38006000
3800C000
3800C000
38018000
38038000
38030000
38070000
38060080
380C0080
380C0180
38180380
38380380
00300780
00700F80
00601D80
00C01D80
00C03980
01807180
03807FE0
0300FFE0
07000180
06000180
ENDCHAR
STARTCHAR onehalf
ENCODING 189
SWIDTH 967 0
DWIDTH 31 0
BBX 26 24 3 0
BITMAP
78003000
F8007000
38006000
3800C000
3800C000
38018000
38038000
38030000
38070000
38060E00
380C3F80
380C7FC0
381861C0
3838E0C0
003000C0
007001C0
00600380
00C00700
00C00700
01800E00
03801C00
03003800
07007FC0
0600FFC0
ENDCHAR
STARTCHAR threequarters
ENCODING 190
SWIDTH 967 0
DWIDTH 31 0
BBX 29 25 1 0
BITMAP
00000800
3F000C00
7F801C00
63801800
E1803000
01803000
07806000
0F00E000
0F80C000
0181C000
01818020
C1830020
E1830060
FF8600E0
7F0E00E0
080C01E0
001C03E0
00180760
00300760
00300E60
00601C60
00E01FF8
00C03FF8
01C00060
01800060
ENDCHAR
STARTCHAR questiondown
ENCODING 191
SWIDTH 489 0
DWIDTH 16 0
BBX 12 25 2 -6
BITMAP
0E00
0F00
0F00
0F00
0000
0000
0F00
3FC0
7FC0
79E0
70E0
F0E0
01E0
0FE0
3FC0
7F80
FC00
F000
F0F0
E0F0
F0F0
FFE0
7FE0
3FC0
0F00
ENDCHAR
STARTCHAR Agrave
ENCODING 192
SWIDTH 740 0
DWIDTH 24 0
BBX 23 33 0 0
BITMAP
004000
00E000
03F000
00F800
007C00
001C00
000800
000000
000800
001800
001800
003C00
003C00
007E00
007E00
00FF00
00FF00
01E780
01E780
03C3C0
03C3C0
0781C0
0781E0
0701E0
0FFFF0
0FFFF0
1FFFF8
1E0078
3C003C
3C003C
78001C
78001E
F0001E
ENDCHAR
STARTCHAR Aacute
ENCODING 193
SWIDTH 740 0
DWIDTH 24 0
BBX 23 33 0 0
BITMAP
000200
000700
000F80
001F00
003C00
003800
001000
000000
000800
001800
001800
003C00
003C00
007E00
007E00
00FF00
00FF00
01E780
01E780
03C3C0
03C3C0
0781C0
0781E0
0701E0
0FFFF0
0FFFF0
1FFFF8
1E0078
3C003C
3C003C
78001C
78001E
F0001E
ENDCHAR
STARTCHAR Acircumflex
ENCODING 194
SWIDTH 740 0
DWIDTH 24 0
BBX 23 33 0 0
BITMAP
001800
003C00
007E00
00FF00
01E780
01C380
000100
000000
000800
001800
001800
003C00
003C00
007E00
007E00
00FF00
00FF00
01E780
01E780
03C3C0
03C3C0
0781C0
0781E0
0701E0
0FFFF0
0FFFF0
1FFFF8
1E0078
3C003C
3C003C
78001C
78001E
F0001E
ENDCHAR
STARTCHAR Atilde
ENCODING 195
SWIDTH 740 0
DWIDTH 24 0
BBX 23 31 0 0
BITMAP
00F080
01FFC0
03FFC0
011F80
000000
000000
000800
001800
001800
003C00
003C00
007E00
007E00
00FF00
00FF00
01E780
01E780
03C3C0
03C3C0
0781C0
0781E0
0701E0
0FFFF0
0FFFF0
1FFFF8
1E0078
3C003C
3C003C
78001C
78001E
F0001E
ENDCHAR
STARTCHAR Adieresis
ENCODING 196
SWIDTH 740 0
DWIDTH 24 0
BBX 23 31 0 0
BITMAP
01C380
03E7C0
03E7C0
01C380
000000
000000
000800
001800
001800
003C00
003C00
007E00
007E00
00FF00
00FF00
01E780
01E780
03C3C0
03C3C0
0781C0
0781E0
0701E0
0FFFF0
0FFFF0
1FFFF8
1E0078
3C003C
3C003C
78001C
78001E
F0001E
ENDCHAR
STARTCHAR Aring
ENCODING 197
SWIDTH 740 0
DWIDTH 24 0
BBX 23 33 0 0
BITMAP
003C00
007E00
006600
006200
006600
003E00
001800
000000
000800
001800
001800
003C00
003C00
007E00
007E00
00FF00
00FF00
01E780
01E780
03C3C0
03C3C0
0781C0
0781E0
0701E0
0FFFF0
0FFFF0
1FFFF8
1E0078
3C003C
3C003C
78001C
78001E
F0001E
ENDCHAR
STARTCHAR AE
ENCODING 198
SWIDTH 1047 0
DWIDTH 34 0
BBX 32 24 1 0
BITMAP
001FFC00
003FFC00
003FFE00
007C0000
007C0000
00FC0000
00FE0000
01EE0000
01EF0000
03CFFFC0
03C7FFC0
0787FFC0
0783FFE0
0F03C000
0F01C000
1FFFE000
1FFFE000
3FFFF000
3C00F000
38007800
78007800
78003FFE
F0003FFF
F0001FFF
ENDCHAR
STARTCHAR Ccedilla
ENCODING 199
SWIDTH 700 0
DWIDTH 22 0
BBX 19 33 2 -8
BITMAP
001800
01FF80
07FFE0
0FFFE0
1F81E0
3E0060
3C0000
780000
F00000
F00000
F00000
F00000
E00000
E00000
E00000
F00000
F00000
F00000
780000
7C0020
3E0060
1F81E0
0FFFE0
07FFE0
01FF80
000000
000000
003000
003C00
007800
00F000
00E000
00C000
ENDCHAR
STARTCHAR Egrave
ENCODING 200
SWIDTH 565 0
DWIDTH 18 0
BBX 13 33 3 0
BITMAP
0800
1C00
3E00
1F00
0780
03C0
0000
0000
0000
FFF8
FFF8
FFF8
F000
F000
F000
F000
F000
F000
FFF8
FFF8
FFF8
FFF8
F000
F000
F000
F000
F000
F000
F000
F000
FFF8
FFF8
FFF8
ENDCHAR
STARTCHAR Eacute
ENCODING 201
SWIDTH 565 0
DWIDTH 18 0
BBX 13 32 3 0
BITMAP
00E0
01F0
03C0
0780
0E00
0400
0000
0000
FFF8
FFF8
FFF8
F000
F000
F000
F000
F000
F000
FFF8
FFF8
FFF8
FFF8
F000
F000
F000
F000
F000
F000
F000
F000
FFF8
FFF8
FFF8
ENDCHAR
STARTCHAR Ecircumflex
ENCODING 202
SWIDTH 565 0
DWIDTH 18 0
BBX 13 33 3 0
BITMAP
0200
0700
0FC0
1FE0
7DF0
38E0
1040
0000
0000
FFF8
FFF8
FFF8
F000
F000
F000
F000
F000
F000
FFF8
FFF8
FFF8
FFF8
F000
F000
F000
F000
F000
F000
F000
F000
FFF8
FFF8
FFF8
ENDCHAR
STARTCHAR Edieresis
ENCODING 203
SWIDTH 565 0
DWIDTH 18 0
BBX 13 31 3 0
BITMAP
3870
78F0
78F0
78F0
0000
0000
0000
FFF8
FFF8
FFF8
F000
F000
F000
F000
F000
F000
FFF8
FFF8
FFF8
FFF8
F000
F000
F000
F000
F000
F000
F000
F000
FFF8
FFF8
FFF8
ENDCHAR
STARTCHAR Igrave
ENCODING 204
SWIDTH 294 0
DWIDTH 9 0
BBX 8 33 -1 0
BITMAP
20
70
F8
7C
1E
0E
00
00
00
0F
0F
0F
0F
0F
0F
0F
0F
0F
0F
0F
0F
0F
0F
0F
0F
0F
0F
0F
0F
0F
0F
0F
0F
ENDCHAR
STARTCHAR Iacute
ENCODING 205
SWIDTH 294 0
DWIDTH 9 0
BBX 7 33 3 0
BITMAP
08
1C
3E
7C
78
E0
40
00
00
F0
F0
F0
F0
F0
F0
F0
F0
F0
F0
F0
F0
F0
F0
F0
F0
F0
F0
F0
F0
F0
F0
F0
F0
ENDCHAR
STARTCHAR Icircumflex
ENCODING 206
SWIDTH 294 0
DWIDTH 9 0
BBX 10 33 0 0
BITMAP
0800
1E00
3F00
7F80
F7C0
E180
4000
0000
0000
1E00
1E00
1E00
1E00
1E00
1E00
1E00
1E00
1E00
1E00
1E00
1E00
1E00
1E00
1E00
1E00
1E00
1E00
1E00
1E00
1E00
1E00
1E00
1E00
ENDCHAR
STARTCHAR Idieresis
ENCODING 207
SWIDTH 294 0
DWIDTH 9 0
BBX 10 31 0 0
BITMAP
E380
F3C0
F7C0
F3C0
0000
0000
0000
1E00
1E00
1E00
1E00
1E00
1E00
1E00
1E00
1E00
1E00
1E00
1E00
1E00
1E00
1E00
1E00
1E00
1E00
1E00
1E00
1E00
1E00
1E00
1E00
ENDCHAR
STARTCHAR Eth
ENCODING 208
SWIDTH 726 0
DWIDTH 23 0
BBX 21 24 1 0
BITMAP
3FF000
3FFE00
3FFF00
3C3F80
3C07C0
3C03E0
3C01E0
3C00F0
3C00F0
3C0070
FFE070
FFE078
FFE078
3C0070
3C0070
3C00F0
3C00F0
3C01E0
3C03E0
3C07C0
3C7F80
3FFF00
3FFE00
3FF000
ENDCHAR
STARTCHAR Ntilde
ENCODING 209
SWIDTH 844 0
DWIDTH 27 0
BBX 21 32 3 -1
BITMAP
03E300
07FF80
0FFF00
063E00
000000
000000
800000
C00078
E00078
F00078
F80078
FC0078
FE0078
FF0078
FF8078
F7C078
F3E078
F1F078
F0F878
F07C78
F03C78
F01E78
F00F78
F007F8
F007F8
F003F8
F001F8
F000F8
F00078
F00038
F00018
000008
ENDCHAR
STARTCHAR Ograve
ENCODING 210
SWIDTH 893 0
DWIDTH 29 0
BBX 25 32 2 0
BITMAP
00E00000
01F00000
00780000
003C0000
000E0000
00040000
00000000
00080000
01FFC000
07FFE000
0FFFF800
1F80FC00
3E003C00
7C001E00
78000F00
F0000F00
F0000700
F0000780
E0000780
E0000780
E0000780
E0000780
F0000780
F0000700
F8000F00
78001F00
7C001E00
3E007C00
1F81F800
0FFFF000
07FFE000
01FF8000
ENDCHAR
STARTCHAR Oacute
ENCODING 211
SWIDTH 893 0
DWIDTH 29 0
BBX 25 33 2 0
BITMAP
00020000
00078000
000FC000
001F0000
003E0000
00380000
00100000
00000000
00080000
01FFC000
07FFE000
0FFFF800
1F80FC00
3E003C00
7C001E00
78000F00
F0000F00
F0000700
F0000780
E0000780
E0000780
E0000780
E0000780
F0000780
F0000700
F8000F00
78001F00
7C001E00
3E007C00
1F81F800
0FFFF000
07FFE000
01FF8000
ENDCHAR
STARTCHAR Ocircumflex
ENCODING 212
SWIDTH 893 0
DWIDTH 29 0
BBX 25 33 2 0
BITMAP
00080000
001C0000
007E0000
00FF0000
01F7C000
00E38000
00010000
00000000
00080000
01FFC000
07FFE000
0FFFF800
1F80FC00
3E003C00
7C001E00
78000F00
F0000F00
F0000700
F0000780
E0000780
E0000780
E0000780
E0000780
F0000780
F0000700
F8000F00
78001F00
7C001E00
3E007C00
1F81F800
0FFFF000
07FFE000
01FF8000
ENDCHAR
STARTCHAR Otilde
ENCODING 213
SWIDTH 893 0
DWIDTH 29 0
BBX 25 31 2 0
BITMAP
01F08000
03FFC000
03FFC000
031F8000
00000000
00000000
00080000
01FFC000
07FFE000
0FFFF800
1F80FC00
3E003C00
7C001E00
78000F00
F0000F00
F0000700
F0000780
E0000780
E0000780
E0000780
E0000780
F0000780
F0000700
F8000F00
78001F00
7C001E00
3E007C00
1F81F800
0FFFF000
07FFE000
01FF8000
ENDCHAR
STARTCHAR Odieresis
ENCODING 214
SWIDTH 893 0
DWIDTH 29 0
BBX 25 31 2 0
BITMAP
01C38000
01E3C000
01E3C000
01E3C000
00000000
00000000
00080000
01FFC000
07FFE000
0FFFF800
1F80FC00
3E003C00
7C001E00
78000F00
F0000F00
F0000700
F0000780
E0000780
E0000780
E0000780
E0000780
F0000780
F0000700
F8000F00
78001F00
7C001E00
3E007C00
1F81F800
0FFFF000
07FFE000
01FF8000
ENDCHAR
STARTCHAR multiply
ENCODING 215
SWIDTH 617 0
DWIDTH 20 0
BBX 14 13 3 6
BITMAP
6018
F03C
7878
3CF0
1FE0
0FC0
0780
0FC0
1FE0
3CF0
7878
F03C
6018
ENDCHAR
STARTCHAR Oslash
ENCODING 216
SWIDTH 892 0
DWIDTH 29 0
BBX 25 25 2 0
BITMAP
00080200
01FF8700
07FFEF00
0FFFFF00
1F80FE00
3E007C00
7C00FE00
7801FF00
F003CF00
F0078700
F00F0780
E01E0780
E03C0780
E0780780
E0F00780
F1F00780
F3E00700
FFC00F00
7F801F00
7F003E00
3E007C00
7F81F800
FFFFF000
E7FFE000
41FF8000
ENDCHAR
STARTCHAR Ugrave
ENCODING 217
SWIDTH 738 0
DWIDTH 24 0
BBX 18 33 3 0
BITMAP
020000
070000
0F8000
07C000
01E000
00E000
000000
000000
000000
F003C0
F003C0
F003C0
F003C0
F003C0
F003C0
F003C0
F003C0
F003C0
F003C0
F003C0
F003C0
F003C0
F003C0
F003C0
F003C0
F003C0
F003C0
F00780
780780
7C1F00
3FFF00
1FFE00
07F800
ENDCHAR
STARTCHAR Uacute
ENCODING 218
SWIDTH 738 0
DWIDTH 24 0
BBX 18 33 3 0
BITMAP
001000
003800
007C00
00F800
01E000
01C000
000000
000000
000000
F003C0
F003C0
F003C0
F003C0
F003C0
F003C0
F003C0
F003C0
F003C0
F003C0
F003C0
F003C0
F003C0
F003C0
F003C0
F003C0
F003C0
F003C0
F00780
780780
7C1F00
3FFF00
1FFE00
07F800
ENDCHAR
STARTCHAR Ucircumflex
ENCODING 219
SWIDTH 738 0
DWIDTH 24 0
BBX 18 33 3 0
BITMAP
00C000
01E000
03F000
07F800
0F3C00
0E1C00
040000
000000
000000
F003C0
F003C0
F003C0
F003C0
F003C0
F003C0
F003C0
F003C0
F003C0
F003C0
F003C0
F003C0
F003C0
F003C0
F003C0
F003C0
F003C0
F003C0
F00780
780780
7C1F00
3FFF00
1FFE00
07F800
ENDCHAR
STARTCHAR Udieresis
ENCODING 220
SWIDTH 738 0
DWIDTH 24 0
BBX 18 31 3 0
BITMAP
0E1C00
1E3C00
1E3E00
1E3C00
000000
000000
000000
F003C0
F003C0
F003C0
F003C0
F003C0
F003C0
F003C0
F003C0
F003C0
F003C0
F003C0
F003C0
F003C0
F003C0
F003C0
F003C0
F003C0
F003C0
F00780
780780
7C1F00
3FFF00
1FFE00
07F800
ENDCHAR
STARTCHAR Yacute
ENCODING 221
SWIDTH 600 0
DWIDTH 19 0
BBX 19 32 0 0
BITMAP
000E00
001F00
003C00
007800
00E000
004000
000000
000000
F001E0
7803C0
7C03C0
3C0780
1E0F80
1E0F00
0F1F00
0F1E00
07BC00
07FC00
03F800
01F800
01F000
00E000
00E000
00E000
00E000
00E000
00E000
00E000
00E000
00E000
00E000
00E000
ENDCHAR
STARTCHAR Thorn
ENCODING 222
SWIDTH 540 0
DWIDTH 17 0
BBX 13 24 3 0
BITMAP
F000
F000
F000
FE00
FFC0
FFF0
FFF0
F078
F078
F038
F038
F038
F078
F0F8
FFF0
FFE0
FFC0
FC00
F000
F000
F000
F000
F000
F000
ENDCHAR
STARTCHAR germandbls
ENCODING 223
SWIDTH 622 0
DWIDTH 20 0
BBX 17 27 1 0
BITMAP
03C000
0FF800
1FFC00
3F7E00
3C1E00
780E00
780F00
780F00
780E00
781E00
78FC00
78F800
F8FC00
F8FE00
F81F00
780780
780780
780380
780380
780380
780380
780780
780F80
781F00
78FE00
78FC00
78F800
ENDCHAR
STARTCHAR agrave
ENCODING 224
SWIDTH 599 0
DWIDTH 19 0
BBX 16 24 1 0
BITMAP
0700
0F00
0780
03C0
01E0
00E0
0000
0000
0380
0FEF
1FFF
3FFF
7C1F
780F
700F
7007
F007
7007
700F
780F
7C1F
3FFF
1FFF
0FEF
ENDCHAR
STARTCHAR aacute
ENCODING 225
SWIDTH 599 0
DWIDTH 19 0
BBX 16 24 1 0
BITMAP
0030
007C
00F8
00F0
01C0
0180
0000
0000
0380
0FEF
1FFF
3FFF
7C1F
780F
700F
7007
F007
7007
700F
780F
7C1F
3FFF
1FFF
0FEF
ENDCHAR
STARTCHAR acircumflex
ENCODING 226
SWIDTH 599 0
DWIDTH 19 0
BBX 16 24 1 0
BITMAP
00C0
01E0
03F0
0FF8
1F3C
0E18
0000
0000
0380
0FEF
1FFF
3FFF
7C1F
780F
700F
7007
F007
7007
700F
780F
7C1F
3FFF
1FFF
0FEF
ENDCHAR
STARTCHAR atilde
ENCODING 227
SWIDTH 599 0
DWIDTH 19 0
BBX 16 22 1 0
BITMAP
0FCC
1FFE
3FFC
0878
0000
0000
0380
0FEF
1FFF
3FFF
7C1F
780F
700F
7007
F007
7007
700F
780F
7C1F
3FFF
1FFF
0FEF
ENDCHAR
STARTCHAR adieresis
ENCODING 228
SWIDTH 599 0
DWIDTH 19 0
BBX 16 22 1 0
BITMAP
0E3C
1F3C
1F3C
0E3C
0000
0000
0380
0FEF
1FFF
3FFF
7C1F
780F
700F
7007
F007
7007
700F
780F
7C1F
3FFF
1FFF
0FEF
ENDCHAR
STARTCHAR aring
ENCODING 229
SWIDTH 599 0
DWIDTH 19 0
BBX 16 24 1 0
BITMAP
03E0
03F0
0630
0630
03F0
03E0
0000
0000
0380
0FEF
1FFF
3FFF
7C1F
780F
700F
7007
F007
7007
700F
780F
7C1F
3FFF
1FFF
0FEF
ENDCHAR
STARTCHAR ae
ENCODING 230
SWIDTH 860 0
DWIDTH 28 0
BBX 25 16 1 0
BITMAP
0380E000
1FE3FC00
1FFFFE00
1FFFFF00
003E0F00
003E0780
0FBFFF80
3FFFFF80
7FFFFF80
7CFC0000
703C0000
F03E0700
703F0F80
7FFFFF00
3FF7FE00
1FE3FC00
ENDCHAR
STARTCHAR ccedilla
ENCODING 231
SWIDTH 476 0
DWIDTH 15 0
BBX 13 24 1 -8
BITMAP
01C0
0FF8
1FF8
3FF8
7C18
7800
7000
7000
F000
7000
7000
7808
3C18
3FF8
1FF8
07F8
0000
0000
0180
03C0
0380
0700
0F00
0200
ENDCHAR
STARTCHAR egrave
ENCODING 232
SWIDTH 553 0
DWIDTH 18 0
BBX 15 24 1 0
BITMAP
0E00
1F00
0F00
0780
03C0
01C0
0000
0000
0380
0FF0
1FF8
3FFC
783C
781E
7FFE
7FFE
FFFE
7000
7008
781C
7C1E
3FFC
1FF8
0FF0
ENDCHAR
STARTCHAR eacute
ENCODING 233
SWIDTH 553 0
DWIDTH 18 0
BBX 15 24 1 0
BITMAP
0070
00F8
00F0
01E0
03C0
0300
0000
0000
0380
0FF0
1FF8
3FFC
783C
781E
7FFE
7FFE
FFFE
7000
7008
781C
7C1E
3FFC
1FF8
0FF0
ENDCHAR
STARTCHAR ecircumflex
ENCODING 234
SWIDTH 553 0
DWIDTH 18 0
BBX 15 24 1 0
BITMAP
0180
03C0
07E0
0FF0
1E78
0C30
0000
0000
0380
0FF0
1FF8
3FFC
783C
781E
7FFE
7FFE
FFFE
7000
7008
781C
7C1E
3FFC
1FF8
0FF0
ENDCHAR
STARTCHAR edieresis
ENCODING 235
SWIDTH 553 0
DWIDTH 18 0
BBX 15 22 1 0
BITMAP
1C38
1E78
1E78
1C38
0000
0000
0380
0FF0
1FF8
3FFC
783C
781E
7FFE
7FFE
FFFE
7000
7008
781C
7C1E
3FFC
1FF8
0FF0
ENDCHAR
STARTCHAR igrave
ENCODING 236
SWIDTH 249 0
DWIDTH 8 0
BBX 7 24 -1 0
BITMAP
60
F0
78
38
1C
0C
00
00
00
1E
1E
1E
1E
1E
1E
1E
1E
1E
1E
1E
1E
1E
1E
1E
ENDCHAR
STARTCHAR iacute
ENCODING 237
SWIDTH 249 0
DWIDTH 8 0
BBX 7 24 2 0
BITMAP
0C
1E
3C
38
70
60
00
00
00
F0
F0
F0
F0
F0
F0
F0
F0
F0
F0
F0
F0
F0
F0
F0
ENDCHAR
STARTCHAR icircumflex
ENCODING 238
SWIDTH 249 0
DWIDTH 8 0
BBX 10 24 -1 0
BITMAP
0C00
1E00
3F00
7F80
F3C0
6180
0000
0000
0000
1E00
1E00
1E00
1E00
1E00
1E00
1E00
1E00
1E00
1E00
1E00
1E00
1E00
1E00
1E00
ENDCHAR
STARTCHAR idieresis
ENCODING 239
SWIDTH 249 0
DWIDTH 8 0
BBX 10 22 -1 0
BITMAP
F3C0
F3C0
F3C0
7380
0000
0000
0000
1E00
1E00
1E00
1E00
1E00
1E00
1E00
1E00
1E00
1E00
1E00
1E00
1E00
1E00
1E00
ENDCHAR
STARTCHAR eth
ENCODING 240
SWIDTH 601 0
DWIDTH 19 0
BBX 17 27 1 0
BITMAP
200000
383000
7EF000
1FF000
07C000
1FE000
3DE000
10F000
007800
003C00
003C00
019E00
0FFE00
1FFF00
3FFF00
7C1F00
780F00
700780
700780
F00780
700780
700700
780F00
3C1F00
3FFE00
1FFC00
07F800
ENDCHAR
STARTCHAR ntilde
ENCODING 241
SWIDTH 548 0
DWIDTH 18 0
BBX 13 22 2 0
BITMAP
3E30
7FF8
FFF0
63E0
0000
0000
0180
F7E0
FFF0
FFF8
F878
F038
F038
F038
F038
F038
F038
F038
F038
F038
F038
F038
ENDCHAR
STARTCHAR ograve
ENCODING 242
SWIDTH 601 0
DWIDTH 19 0
BBX 17 24 1 0
BITMAP
070000
0F0000
078000
03C000
01E000
00E000
000000
000000
01C000
0FF800
1FFC00
3FFE00
7C1F00
780F00
700780
700780
F00780
700780
700700
780F00
3C1F00
3FFE00
1FFC00
07F000
ENDCHAR
STARTCHAR oacute
ENCODING 243
SWIDTH 601 0
DWIDTH 19 0
BBX 17 24 1 0
BITMAP
003000
007C00
00F800
00E000
01C000
018000
000000
000000
01C000
0FF800
1FFC00
3FFE00
7C1F00
780F00
700780
700780
F00780
700780
700700
780F00
3C1F00
3FFE00
1FFC00
07F000
ENDCHAR
STARTCHAR ocircumflex
ENCODING 244
SWIDTH 601 0
DWIDTH 19 0
BBX 17 24 1 0
BITMAP
00C000
03E000
07F000
0FF800
1F3C00
0C1800
000000
000000
01C000
0FF800
1FFC00
3FFE00
7C1F00
780F00
700780
700780
F00780
700780
700700
780F00
3C1F00
3FFE00
1FFC00
07F000
ENDCHAR
STARTCHAR otilde
ENCODING 245
SWIDTH 601 0
DWIDTH 19 0
BBX 17 22 1 0
BITMAP
0FC600
1FFE00
1FFE00
087C00
000000
000000
01C000
0FF800
1FFC00
3FFE00
7C1F00
780F00
700780
700780
F00780
700780
700700
780F00
3C1F00
3FFE00
1FFC00
07F000
ENDCHAR
STARTCHAR odieresis
ENCODING 246
SWIDTH 601 0
DWIDTH 19 0
BBX 17 22 1 0
BITMAP
0E3C00
1F3C00
1F3C00
0E3C00
000000
000000
01C000
0FF800
1FFC00
3FFE00
7C1F00
780F00
700780
700780
F00780
700780
700700
780F00
3C1F00
3FFE00
1FFC00
07F000
ENDCHAR
STARTCHAR divide
ENCODING 247
SWIDTH 617 0
DWIDTH 20 0
BBX 16 15 2 5
BITMAP
0180
03C0
03C0
0380
0000
0000
FFFF
FFFF
FFFF
0000
0000
0380
03C0
03C0
0180
ENDCHAR
STARTCHAR oslash
ENCODING 248
SWIDTH 601 0
DWIDTH 19 0
BBX 17 17 1 -1
BITMAP
01C180
0FFB80
1FFF00
3FFE00
7C1F00
783F00
707780
70E780
F1C780
738780
770700
7E0F00
3C1F00
3FFE00
7FFC00
E7F800
400000
ENDCHAR
STARTCHAR ugrave
ENCODING 249
SWIDTH 544 0
DWIDTH 17 0
BBX 13 24 2 0
BITMAP
1800
3C00
1E00
0F00
0780
0380
0000
0000
0000
F038
F038
F038
F038
F038
F038
F038
F038
F038
F038
F078
7878
7FF0
3FF0
1FC0
ENDCHAR
STARTCHAR uacute
ENCODING 250
SWIDTH 544 0
DWIDTH 17 0
BBX 13 24 2 0
BITMAP
00E0
01F0
01E0
03C0
0780
0700
0000
0000
0000
F038
F038
F038
F038
F038
F038
F038
F038
F038
F038
F078
7878
7FF0
3FF0
1FC0
ENDCHAR
STARTCHAR ucircumflex
ENCODING 251
SWIDTH 544 0
DWIDTH 17 0
BBX 13 24 2 0
BITMAP
0300
0780
1FC0
3FE0
7CF0
3860
0000
0000
0000
F038
F038
F038
F038
F038
F038
F038
F038
F038
F038
F078
7878
7FF0
3FF0
1FC0
ENDCHAR
STARTCHAR udieresis
ENCODING 252
SWIDTH 544 0
DWIDTH 17 0
BBX 13 22 2 0
BITMAP
38F0
7CF0
7CF0
38F0
0000
0000
0000
F038
F038
F038
F038
F038
F038
F038
F038
F038
F038
F078
7878
7FF0
3FF0
1FC0
ENDCHAR
STARTCHAR yacute
ENCODING 253
SWIDTH 543 0
DWIDTH 17 0
BBX 16 32 1 -8
BITMAP
0030
0078
00F0
01E0
01C0
0380
0000
0000
0000
F00F
F01E
781E
783C
3C3C
3C78
1E78
1EF0
0FF0
07E0
07E0
03C0
03C0
0780
0780
0F00
0F00
1E00
1E00
3C00
3C00
7800
F800
ENDCHAR
STARTCHAR thorn
ENCODING 254
SWIDTH 599 0
DWIDTH 19 0
BBX 16 34 2 -8
BITMAP
F000
F000
F000
F000
F000
F000
F000
F000
F000
F000
F1C0
F7F0
FFF8
FFFC
F83E
F01E
F00E
F00F
F00F
F00F
F00E
F01E
F83E
FFFC
FFF8
F7F0
F000
F000
F000
F000
F000
F000
F000
F000
ENDCHAR
STARTCHAR ydieresis
ENCODING 255
SWIDTH 543 0
DWIDTH 17 0
BBX 16 30 1 -8
BITMAP
1C78
3E78
3E78
1C78
0000
0000
0000
F00F
F01E
781E
783C
3C3C
3C78
1E78
1EF0
0FF0
07E0
07E0
03C0
03C0
0780
0780
0F00
0F00
1E00
1E00
3C00
3C00
7800
F800
ENDCHAR
STARTCHAR Amacron
ENCODING 256
SWIDTH 740 0
DWIDTH 24 0
BBX 23 30 0 0
BITMAP
01FF80
01FF80
01FF80
000000
000000
000800
001800
001800
003C00
003C00
007E00
007E00
00FF00
00FF00
01E780
01E780
03C3C0
03C3C0
0781C0
0781E0
0701E0
0FFFF0
0FFFF0
1FFFF8
1E0078
3C003C
3C003C
78001C
78001E
F0001E
ENDCHAR
STARTCHAR amacron
ENCODING 257
SWIDTH 599 0
DWIDTH 19 0
BBX 16 21 1 0
BITMAP
1FFC
1FFC
1FFC
0000
0000
0380
0FEF
1FFF
3FFF
7C1F
780F
700F
7007
F007
7007
700F
780F
7C1F
3FFF
1FFF
0FEF
ENDCHAR
STARTCHAR Abreve
ENCODING 258
SWIDTH 740 0
DWIDTH 24 0
BBX 23 32 0 0
BITMAP
0381C0
01C380
01E780
01FF80
00FF00
001000
000000
000800
001800
001800
003C00
003C00
007E00
007E00
00FF00
00FF00
01E780
01E780
03C3C0
03C3C0
0781C0
0781E0
0701E0
0FFFF0
0FFFF0
1FFFF8
1E0078
3C003C
3C003C
78001C
78001E
F0001E
ENDCHAR
STARTCHAR abreve
ENCODING 259
SWIDTH 599 0
DWIDTH 19 0
BBX 16 23 1 0
BITMAP
1C1C
1E1C
0F3C
0FF8
07F0
0000
0000
0380
0FEF
1FFF
3FFF
7C1F
780F
700F
7007
F007
7007
700F
780F
7C1F
3FFF
1FFF
0FEF
ENDCHAR
STARTCHAR Aogonek
ENCODING 260
SWIDTH 740 0
DWIDTH 24 0
BBX 24 33 0 -8
BITMAP
000800
001800
001800
003C00
003C00
007E00
007E00
00FF00
00FF00
01E780
01E780
03C3C0
03C3C0
0781C0
0781E0
0701E0
0FFFF0
0FFFF0
1FFFF8
1E0078
3C003C
3C003C
78001C
78001E
F0001E
00001C
000038
000070
000070
0000F1
00007E
00007E
00001C
ENDCHAR
STARTCHAR aogonek
ENCODING 261
SWIDTH 599 0
DWIDTH 19 0
BBX 16 24 1 -8
BITMAP
0380
0FEF
1FFF
3FFF
7C1F
780F
700F
7007
F007
7007
700F
780F
7C1F
3FFF
1FFF
0FEF
000E
001C
0038
0070
0078
007F
003F
001E
ENDCHAR
STARTCHAR Cacute
ENCODING 262
SWIDTH 700 0
DWIDTH 22 0
BBX 19 32 2 0
BITMAP
000700
000F80
001E00
003C00
007800
002000
000000
001800
01FF80
07FFE0
0FFFE0
1F81E0
3E0060
3C0000
780000
F00000
F00000
F00000
F00000
E00000
E00000
E00000
F00000
F00000
F00000
780000
7C0020
3E0060
1F81E0
0FFFE0
07FFE0
01FF80
ENDCHAR
STARTCHAR cacute
ENCODING 263
SWIDTH 476 0
DWIDTH 15 0
BBX 13 24 1 0
BITMAP
0070
00F8
00F0
01E0
03C0
0380
0000
0000
01C0
0FF8
1FF8
3FF8
7C18
7800
7000
7000
F000
7000
7000
7808
3C18
3FF8
1FF8
07F8
ENDCHAR
STARTCHAR Ccircumflex
ENCODING 264
SWIDTH 700 0
DWIDTH 22 0
BBX 19 33 2 0
BITMAP
003800
007C00
00FE00
01FF00
03C780
018300
000000
000000
001800
01FF80
07FFE0
0FFFE0
1F81E0
3E0060
3C0000
780000
F00000
F00000
F00000
F00000
E00000
E00000
E00000
F00000
F00000
F00000
780000
7C0020
3E0060
1F81E0
0FFFE0
07FFE0
01FF80
ENDCHAR
STARTCHAR ccircumflex
ENCODING 265
SWIDTH 476 0
DWIDTH 15 0
BBX 14 24 1 0
BITMAP
0180
03C0
07E0
0FF0
1E7C
0C30
0000
0000
01C0
0FF8
1FF8
3FF8
7C18
7800
7000
7000
F000
7000
7000
7808
3C18
3FF8
1FF8
07F8
ENDCHAR
STARTCHAR Cdotaccent
ENCODING 266
SWIDTH 700 0
DWIDTH 22 0
BBX 19 30 2 0
BITMAP
003C00
003C00
003C00
003C00
000000
001800
01FF80
07FFE0
0FFFE0
1F81E0
3E0060
3C0000
780000
F00000
F00000
F00000
F00000
E00000
E00000
E00000
F00000
F00000
F00000
780000
7C0020
3E0060
1F81E0
0FFFE0
07FFE0
01FF80
ENDCHAR
STARTCHAR cdotaccent
ENCODING 267
SWIDTH 476 0
DWIDTH 15 0
BBX 13 22 1 0
BITMAP
03C0
03C0
03C0
03C0
0000
0000
01C0
0FF8
1FF8
3FF8
7C18
7800
7000
7000
F000
7000
7000
7808
3C18
3FF8
1FF8
07F8
ENDCHAR
STARTCHAR Ccaron
ENCODING 268
SWIDTH 700 0
DWIDTH 22 0
BBX 19 33 2 0
BITMAP
008300
01C780
01FF00
00FE00
007C00
001800
000000
000000
001800
01FF80
07FFE0
0FFFE0
1F81E0
3E0060
3C0000
780000
F00000
F00000
F00000
F00000
E00000
E00000
E00000
F00000
F00000
F00000
780000
7C0020
3E0060
1F81E0
0FFFE0
07FFE0
01FF80
ENDCHAR
STARTCHAR ccaron
ENCODING 269
SWIDTH 476 0
DWIDTH 15 0
BBX 13 24 1 0
BITMAP
1C30
3E78
1FF0
07E0
03C0
0180
0000
0000
01C0
0FF8
1FF8
3FF8
7C18
7800
7000
7000
F000
7000
7000
7808
3C18
3FF8
1FF8
07F8
ENDCHAR
STARTCHAR Dcaron
ENCODING 270
SWIDTH 726 0
DWIDTH 23 0
BBX 19 33 3 0
BITMAP
106000
78F000
3DE000
1FC000
0F8000
070000
020000
000000
000000
FFC000
FFF800
FFFC00
F0FE00
F01F00
F00F80
F00780
F003C0
F003C0
F001C0
F001C0
F001E0
F001E0
F001C0
F001C0
F003C0
F003C0
F00780
F00F80
F01F00
F1FE00
FFFC00
FFF800
FFC000
ENDCHAR
STARTCHAR dcaron
ENCODING 271
SWIDTH 708 0
DWIDTH 23 0
BBX 21 26 1 0
BITMAP
000F00
000F00
000F38
000F38
000F38
000F38
000F18
000F18
000F38
000F10
038F00
0FEF00
1FFF00
3FFF00
7C1F00
780F00
700F00
700700
F00700
700700
700F00
780F00
7C1F00
3FFF00
1FFF00
0FEF00
ENDCHAR
STARTCHAR Dcroat
ENCODING 272
SWIDTH 726 0
DWIDTH 23 0
BBX 21 24 1 0
BITMAP
3FF000
3FFE00
3FFF00
3C3F80
3C07C0
3C03E0
3C01E0
3C00F0
3C00F0
3C0070
FFE070
FFE078
FFE078
3C0070
3C0070
3C00F0
3C00F0
3C01E0
3C03E0
3C07C0
3C7F80
3FFF00
3FFE00
3FF000
ENDCHAR
STARTCHAR dcroat
ENCODING 273
SWIDTH 599 0
DWIDTH 19 0
BBX 19 26 1 0
BITMAP
000F00
000F00
000F00
000F00
007FE0
007FE0
007FE0
000F00
000F00
000F00
038F00
0FEF00
1FFF00
3FFF00
7C1F00
780F00
700F00
700700
F00700
700700
700F00
780F00
7C1F00
3FFF00
1FFF00
0FEF00
ENDCHAR
STARTCHAR Emacron
ENCODING 274
SWIDTH 565 0
DWIDTH 18 0
BBX 13 30 3 0
BITMAP
7FF0
7FF0
7FF0
0000
0000
0000
FFF8
FFF8
FFF8
F000
F000
F000
F000
F000
F000
FFF8
FFF8
FFF8
FFF8
F000
F000
F000
F000
F000
F000
F000
F000
FFF8
FFF8
FFF8
ENDCHAR
STARTCHAR emacron
ENCODING 275
SWIDTH 553 0
DWIDTH 18 0
BBX 15 21 1 0
BITMAP
3FF8
3FF8
3FF8
0000
0000
0380
0FF0
1FF8
3FFC
783C
781E
7FFE
7FFE
FFFE
7000
7008
781C
7C1E
3FFC
1FF8
0FF0
ENDCHAR
STARTCHAR Ebreve
ENCODING 276
SWIDTH 565 0
DWIDTH 18 0
BBX 13 32 3 0
BITMAP
7070
7070
7DF0
3FE0
1FC0
0000
0000
0000
FFF8
FFF8
FFF8
F000
F000
F000
F000
F000
F000
FFF8
FFF8
FFF8
FFF8
F000
F000
F000
F000
F000
F000
F000
F000
FFF8
FFF8
FFF8
ENDCHAR
STARTCHAR ebreve
ENCODING 277
SWIDTH 553 0
DWIDTH 18 0
BBX 15 23 1 0
BITMAP
381C
1C38
1E78
0FF8
07E0
0000
0000
0380
0FF0
1FF8
3FFC
783C
781E
7FFE
7FFE
FFFE
7000
7008
781C
7C1E
3FFC
1FF8
0FF0
ENDCHAR
STARTCHAR Edotaccent
ENCODING 278
SWIDTH 565 0
DWIDTH 18 0
BBX 13 31 3 0
BITMAP
0700
0F80
0F80
0700
0000
0000
0000
FFF8
FFF8
FFF8
F000
F000
F000
F000
F000
F000
FFF8
FFF8
FFF8
FFF8
F000
F000
F000
F000
F000
F000
F000
F000
FFF8
FFF8
FFF8
ENDCHAR
STARTCHAR edotaccent
ENCODING 279
SWIDTH 553 0
DWIDTH 18 0
BBX 15 22 1 0
BITMAP
03C0
03C0
03C0
03C0
0000
0000
0380
0FF0
1FF8
3FFC
783C
781E
7FFE
7FFE
FFFE
7000
7008
781C
7C1E
3FFC
1FF8
0FF0
ENDCHAR
STARTCHAR Eogonek
ENCODING 280
SWIDTH 565 0
DWIDTH 18 0
BBX 14 32 3 -8
BITMAP
FFF8
FFF8
FFF8
F000
F000
F000
F000
F000
F000
FFF8
FFF8
FFF8
FFF8
F000
F000
F000
F000
F000
F000
F000
F000
FFF8
FFF8
FFF8
0070
00E0
01E0
01C0
01E0
01FC
00FC
0078
ENDCHAR
STARTCHAR eogonek
ENCODING 281
SWIDTH 553 0
DWIDTH 18 0
BBX 15 24 1 -8
BITMAP
0380
0FF0
1FF8
3FFC
783C
781E
7FFE
7FFE
FFFE
7000
7008
781C
7C1E
3FFC
1FF8
0FF0
01C0
0380
0700
0700
0710
07F0
07E0
01C0
ENDCHAR
STARTCHAR Ecaron
ENCODING 282
SWIDTH 565 0
DWIDTH 18 0
BBX 13 33 3 0
BITMAP
3040
78F0
3DE0
1FC0
0F80
0700
0200
0000
0000
FFF8
FFF8
FFF8
F000
F000
F000
F000
F000
F000
FFF8
FFF8
FFF8
FFF8
F000
F000
F000
F000
F000
F000
F000
F000
FFF8
FFF8
FFF8
ENDCHAR
STARTCHAR ecaron
ENCODING 283
SWIDTH 553 0
DWIDTH 18 0
BBX 15 24 1 0
BITMAP
0C30
1E7C
0FF0
07E0
03C0
0180
0000
0000
0380
0FF0
1FF8
3FFC
783C
781E
7FFE
7FFE
FFFE
7000
7008
781C
7C1E
3FFC
1FF8
0FF0
ENDCHAR
STARTCHAR Gcircumflex
ENCODING 284
SWIDTH 842 0
DWIDTH 27 0
BBX 23 33 2 0
BITMAP
001800
003C00
007E00
00FF80
01E7C0
00C380
000000
000000
001800
01FF80
07FFE0
0FFFF0
1F80F8
3E007C
7C0038
780010
F00000
F00000
F00000
E00000
E007FE
E007FE
E007FE
F007FE
F0001E
F0001E
78003C
7C003C
3E0078
1F81F8
0FFFF0
07FFE0
01FF80
ENDCHAR
STARTCHAR gcircumflex
ENCODING 285
SWIDTH 598 0
DWIDTH 19 0
BBX 16 32 1 -8
BITMAP
0180
03C0
07E0
0FF0
1E7C
0C30
0000
0000
0380
0FEF
1FFF
3FFF
7C1F
780F
700F
700F
F007
700F
700F
780F
7C1F
3FFF
1FFF
0FEF
000F
000F
780F
780F
3C1E
3FFE
1FFC
07F0
ENDCHAR
STARTCHAR Gbreve
ENCODING 286
SWIDTH 842 0
DWIDTH 27 0
BBX 23 32 2 0
BITMAP
0381C0
01C380
01E780
01FF80
00FF00
001000
000000
001800
01FF80
07FFE0
0FFFF0
1F80F8
3E007C
7C0038
780010
F00000
F00000
F00000
E00000
E007FE
E007FE
E007FE
F007FE
F0001E
F0001E
78003C
7C003C
3E0078
1F81F8
0FFFF0
07FFE0
01FF80
ENDCHAR
STARTCHAR gbreve
ENCODING 287
SWIDTH 598 0
DWIDTH 19 0
BBX 16 31 1 -8
BITMAP
1C1C
1C1C
1F78
0FF8
07F0
0000
0000
0380
0FEF
1FFF
3FFF
7C1F
780F
700F
700F
F007
700F
700F
780F
7C1F
3FFF
1FFF
0FEF
000F
000F
780F
780F
3C1E
3FFE
1FFC
07F0
ENDCHAR
STARTCHAR Gdotaccent
ENCODING 288
SWIDTH 842 0
DWIDTH 27 0
BBX 23 31 2 0
BITMAP
003C00
003C00
003C00
003C00
000000
000000
001800
01FF80
07FFE0
0FFFF0
1F80F8
3E007C
7C0038
780010
F00000
F00000
F00000
E00000
E007FE
E007FE
E007FE
F007FE
F0001E
F0001E
78003C
7C003C
3E0078
1F81F8
0FFFF0
07FFE0
01FF80
ENDCHAR
STARTCHAR gdotaccent
ENCODING 289
SWIDTH 598 0
DWIDTH 19 0
BBX 16 30 1 -8
BITMAP
03C0
03C0
03C0
03C0
0000
0000
0380
0FEF
1FFF
3FFF
7C1F
780F
700F
700F
F007
700F
700F
780F
7C1F
3FFF
1FFF
0FEF
000F
000F
780F
780F
3C1E
3FFE
1FFC
07F0
ENDCHAR
STARTCHAR Gcedilla
ENCODING 290
SWIDTH 842 0
DWIDTH 27 0
BBX 23 34 2 -9
BITMAP
001800
01FF80
07FFE0
0FFFF0
1F80F8
3E007C
7C0038
780010
F00000
F00000
F00000
E00000
E007FE
E007FE
E007FE
F007FE
F0001E
F0001E
78003C
7C003C
3E0078
1F81F8
0FFFF0
07FFE0
01FF80
000000
003C00
003C00
003C00
003C00
000C00
000C00
001C00
001800
ENDCHAR
STARTCHAR gcedilla
ENCODING 291
SWIDTH 598 0
DWIDTH 19 0
BBX 16 33 1 -8
BITMAP
01C0
0180
0180
0180
01C0
01C0
01C0
0000
0000
0380
0FEF
1FFF
3FFF
7C1F
780F
700F
700F
F007
700F
700F
780F
7C1F
3FFF
1FFF
0FEF
000F
000F
780F
780F
3C1E
3FFE
1FFC
07F0
ENDCHAR
STARTCHAR Hcircumflex
ENCODING 292
SWIDTH 733 0
DWIDTH 23 0
BBX 18 33 3 0
BITMAP
00C000
01E000
03F000
07F800
0F3C00
061800
000000
000000
000000
F003C0
F003C0
F003C0
F003C0
F003C0
F003C0
F003C0
F003C0
F003C0
FFFFC0
FFFFC0
FFFFC0
FFFFC0
F003C0
F003C0
F003C0
F003C0
F003C0
F003C0
F003C0
F003C0
F003C0
F003C0
F003C0
ENDCHAR
STARTCHAR hcircumflex
ENCODING 293
SWIDTH 548 0
DWIDTH 18 0
BBX 16 33 -1 0
BITMAP
0C00
1E00
3F00
7F80
F3C0
6180
0000
1E00
1E00
1E00
1E00
1E00
1E00
1E00
1E00
1E00
1E00
1E30
1FFC
1FFE
1FFF
1F0F
1E07
1E07
1E07
1E07
1E07
1E07
1E07
1E07
1E07
1E07
1E07
ENDCHAR
STARTCHAR Hbar
ENCODING 294
SWIDTH 848 0
DWIDTH 27 0
BBX 27 24 0 0
BITMAP
0F001C00
0F001C00
0F001C00
FFFFFFE0
FFFFFFE0
FFFFFFE0
0F001C00
0F001C00
0F001C00
0FFFFC00
0FFFFC00
0FFFFC00
0FFFFC00
0F001C00
0F001C00
0F001C00
0F001C00
0F001C00
0F001C00
0F001C00
0F001C00
0F001C00
0F001C00
0F001C00
ENDCHAR
STARTCHAR hbar
ENCODING 295
SWIDTH 548 0
DWIDTH 18 0
BBX 14 26 1 0
BITMAP
7800
7800
7800
7800
7800
FE00
FE00
FE00
7800
7800
78C0
7FF0
7FF8
7FFC
7C3C
781C
781C
781C
781C
781C
781C
781C
781C
781C
781C
781C
ENDCHAR
STARTCHAR Itilde
ENCODING 296
SWIDTH 403 0
DWIDTH 13 0
BBX 13 30 0 0
BITMAP
3E30
7FF8
FFF0
63E0
0000
0000
0F00
0F00
0F00
0F00
0F00
0F00
0F00
0F00
0F00
0F00
0F00
0F00
0F00
0F00
0F00
0F00
0F00
0F00
0F00
0F00
0F00
0F00
0F00
0F00
ENDCHAR
STARTCHAR itilde
ENCODING 297
SWIDTH 396 0
DWIDTH 13 0
BBX 13 22 0 0
BITMAP
7E30
7FF8
FFF0
43E0
0000
0000
0000
0700
0700
0700
0700
0700
0700
0700
0700
0700
0700
0700
0700
0700
0700
0700
ENDCHAR
STARTCHAR Imacron
ENCODING 298
SWIDTH 294 0
DWIDTH 9 0
BBX 9 30 0 0
BITMAP
FF80
FF80
FF80
0000
0000
0000
1E00
1E00
1E00
1E00
1E00
1E00
1E00
1E00
1E00
1E00
1E00
1E00
1E00
1E00
1E00
1E00
1E00
1E00
1E00
1E00
1E00
1E00
1E00
1E00
ENDCHAR
STARTCHAR imacron
ENCODING 299
SWIDTH 249 0
DWIDTH 8 0
BBX 8 21 0 0
BITMAP
FF
FF
FF
00
00
00
3C
3C
3C
3C
3C
3C
3C
3C
3C
3C
3C
3C
3C
3C
3C
ENDCHAR
STARTCHAR Ibreve
ENCODING 300
SWIDTH 352 0
DWIDTH 11 0
BBX 11 32 0 0
BITMAP
E0E0
E0E0
7BE0
7FC0
3F80
0000
0000
0000
0F00
0F00
0F00
0F00
0F00
0F00
0F00
0F00
0F00
0F00
0F00
0F00
0F00
0F00
0F00
0F00
0F00
0F00
0F00
0F00
0F00
0F00
0F00
0F00
ENDCHAR
STARTCHAR ibreve
ENCODING 301
SWIDTH 349 0
DWIDTH 11 0
BBX 11 23 0 0
BITMAP
E0E0
E0E0
7BE0
7FC0
3F80
0000
0000
0000
0E00
0E00
0E00
0E00
0E00
0E00
0E00
0E00
0E00
0E00
0E00
0E00
0E00
0E00
0E00
ENDCHAR
STARTCHAR Iogonek
ENCODING 302
SWIDTH 294 0
DWIDTH 9 0
BBX 7 32 0 -8
BITMAP
1E
1E
1E
1E
1E
1E
1E
1E
1E
1E
1E
1E
1E
1E
1E
1E
1E
1E
1E
1E
1E
1E
1E
1E
38
70
E0
E0
F0
FE
FE
3C
ENDCHAR
STARTCHAR iogonek
ENCODING 303
SWIDTH 249 0
DWIDTH 8 0
BBX 7 32 -1 -8
BITMAP
0C
1E
1E
1E
0C
00
00
00
00
1E
1E
1E
1E
1E
1E
1E
1E
1E
1E
1E
1E
1E
1E
1E
1C
70
70
E0
F0
FE
7E
3C
ENDCHAR
STARTCHAR Idotaccent
ENCODING 304
SWIDTH 294 0
DWIDTH 9 0
BBX 5 31 2 0
BITMAP
70
F8
F8
78
00
00
00
78
78
78
78
78
78
78
78
78
78
78
78
78
78
78
78
78
78
78
78
78
78
78
78
ENDCHAR
STARTCHAR dotlessi
ENCODING 305
SWIDTH 249 0
DWIDTH 8 0
BBX 4 15 2 0
BITMAP
F0
F0
F0
F0
F0
F0
F0
F0
F0
F0
F0
F0
F0
F0
F0
ENDCHAR
STARTCHAR IJ
ENCODING 306
SWIDTH 722 0
DWIDTH 23 0
BBX 17 24 3 0
BITMAP
F00380
F00380
F00380
F00380
F00380
F00380
F00380
F00380
F00380
F00380
F00380
F00380
F00380
F00380
F00380
F00380
F00380
F00380
F00780
F00780
F08F80
F1FF00
F1FE00
F1FC00
ENDCHAR
STARTCHAR ij
ENCODING 307
SWIDTH 515 0
DWIDTH 17 0
BBX 12 32 2 -8
BITMAP
60E0
F1F0
F1F0
F0F0
60E0
0000
0000
0000
0000
F0E0
F0E0
F0E0
F0E0
F0E0
F0E0
F0E0
F0E0
F0E0
F0E0
F0E0
F0E0
F0E0
F0E0
F0E0
00E0
00E0
00E0
00E0
00E0
00E0
00E0
00E0
ENDCHAR
STARTCHAR Jcircumflex
ENCODING 308
SWIDTH 454 0
DWIDTH 15 0
BBX 14 33 0 0
BITMAP
00C0
01E0
03F0
07F8
0F3C
0618
0000
0000
0000
01C0
01C0
01C0
01C0
01C0
01C0
01C0
01C0
01C0
01C0
01C0
01C0
01C0
01C0
01C0
01C0
01C0
03C0
03C0
03C0
47C0
FF80
FF00
FE00
ENDCHAR
STARTCHAR jcircumflex
ENCODING 309
SWIDTH 342 0
DWIDTH 11 0
BBX 11 30 0 -6
BITMAP
0C00
1F00
3F80
7FC0
F1E0
60C0
0000
0000
0000
0000
0000
0E00
0E00
0E00
0E00
0E00
0E00
0E00
0E00
0E00
0E00
0E00
0E00
0E00
0E00
0E00
0E00
0E00
0E00
0E00
ENDCHAR
STARTCHAR Kcedilla
ENCODING 310
SWIDTH 662 0
DWIDTH 21 0
BBX 17 33 3 -9
BITMAP
F00F80
F01F00
F03E00
F07C00
F0F800
F1F000
F3E000
F7C000
FF8000
FF0000
FE0000
FE0000
FF0000
FF8000
F7C000
F3E000
F1F000
F0F000
F07800
F07C00
F03E00
F01F00
F00F80
F00780
000000
078000
078000
078000
078000
018000
038000
038000
030000
ENDCHAR
STARTCHAR kcedilla
ENCODING 311
SWIDTH 498 0
DWIDTH 16 0
BBX 14 35 2 -9
BITMAP
F000
F000
F000
F000
F000
F000
F000
F000
F000
F000
F000
F0F8
F1F0
F3E0
F7C0
FF80
FF00
FE00
FF00
FF80
F780
F3C0
F1E0
F1F0
F0F8
F07C
0000
0F00
0F00
0F00
0F00
0700
0700
0600
0600
ENDCHAR
STARTCHAR kgreenlandic
ENCODING 312
SWIDTH 498 0
DWIDTH 16 0
BBX 14 15 2 0
BITMAP
F0F8
F1F0
F3E0
F7C0
FF80
FF00
FE00
FF00
FF80
F780
F3C0
F1E0
F1F0
F0F8
F07C
ENDCHAR
STARTCHAR Lacute
ENCODING 313
SWIDTH 443 0
DWIDTH 14 0
BBX 11 33 3 0
BITMAP
0400
0F00
1F80
3E00
7C00
7000
2000
0000
0000
F000
F000
F000
F000
F000
F000
F000
F000
F000
F000
F000
F000
F000
F000
F000
F000
F000
F000
F000
F000
F000
FFE0
FFE0
FFE0
ENDCHAR
STARTCHAR lacute
ENCODING 314
SWIDTH 249 0
DWIDTH 8 0
BBX 8 34 1 0
BITMAP
08
1E
3F
7C
78
E0
40
00
78
78
78
78
78
78
78
78
78
78
78
78
78
78
78
78
78
78
78
78
78
78
78
78
78
78
ENDCHAR
STARTCHAR Lcedilla
ENCODING 315
SWIDTH 443 0
DWIDTH 14 0
BBX 11 33 3 -9
BITMAP
F000
F000
F000
F000
F000
F000
F000
F000
F000
F000
F000
F000
F000
F000
F000
F000
F000
F000
F000
F000
F000
FFE0
FFE0
FFE0
0000
1E00
1E00
1E00
1E00
0600
0E00
0E00
0C00
ENDCHAR
STARTCHAR lcedilla
ENCODING 316
SWIDTH 249 0
DWIDTH 8 0
BBX 4 35 2 -9
BITMAP
F0
F0
F0
F0
F0
F0
F0
F0
F0
F0
F0
F0
F0
F0
F0
F0
F0
F0
F0
F0
F0
F0
F0
F0
F0
F0
00
F0
F0
F0
F0
30
70
60
60
ENDCHAR
STARTCHAR Lcaron
ENCODING 317
SWIDTH 443 0
DWIDTH 14 0
BBX 11 24 3 0
BITMAP
F3C0
F3C0
F3C0
F3C0
F1C0
F1C0
F180
F080
F000
F000
F000
F000
F000
F000
F000
F000
F000
F000
F000
F000
F000
FFE0
FFE0
FFE0
ENDCHAR
STARTCHAR lcaron
ENCODING 318
SWIDTH 356 0
DWIDTH 11 0
BBX 9 26 2 0
BITMAP
F000
F000
F780
F780
F780
F780
F180
F380
F300
F100
F000
F000
F000
F000
F000
F000
F000
F000
F000
F000
F000
F000
F000
F000
F000
F000
ENDCHAR
STARTCHAR Ldotaccent
ENCODING 319
SWIDTH 443 0
DWIDTH 14 0
BBX 11 24 3 0
BITMAP
F000
F000
F1E0
F1E0
F1E0
F1E0
F000
F000
F000
F000
F000
F000
F000
F000
F000
F000
F000
F000
F000
F000
F000
FFE0
FFE0
FFE0
ENDCHAR
STARTCHAR ldotaccent
ENCODING 320
SWIDTH 468 0
DWIDTH 15 0
BBX 11 26 2 0
BITMAP
F000
F000
F000
F000
F1E0
F3E0
F3E0
F1C0
F000
F000
F000
F000
F000
F000
F000
F000
F000
F000
F000
F000
F000
F000
F000
F000
F000
F000
ENDCHAR
STARTCHAR Lslash
ENCODING 321
SWIDTH 443 0
DWIDTH 14 0
BBX 13 24 1 0
BITMAP
3C00
3C00
3C00
3C00
3C00
3C00
3C40
3CC0
3FC0
3FC0
3F80
7E00
FC00
FC00
FC00
BC00
3C00
3C00
3C00
3C00
3C00
3FF8
3FF8
3FF8
ENDCHAR
STARTCHAR lslash
ENCODING 322
SWIDTH 298 0
DWIDTH 10 0
BBX 8 26 1 0
BITMAP
3C
3C
3C
3C
3C
3C
3C
3C
3C
3D
3F
3F
3F
7E
FC
FC
BC
3C
3C
3C
3C
3C
3C
3C
3C
3C
ENDCHAR
STARTCHAR Nacute
ENCODING 323
SWIDTH 844 0
DWIDTH 27 0
BBX 21 34 3 -1
BITMAP
000800
001C00
003E00
007C00
00F000
00E000
000000
000000
800000
C00078
E00078
F00078
F80078
FC0078
FE0078
FF0078
FF8078
F7C078
F3E078
F1F078
F0F878
F07C78
F03C78
F01E78
F00F78
F007F8
F007F8
F003F8
F001F8
F000F8
F00078
F00038
F00018
000008
ENDCHAR
STARTCHAR nacute
ENCODING 324
SWIDTH 548 0
DWIDTH 18 0
BBX 13 24 2 0
BITMAP
00E0
01F0
03E0
03C0
0700
0600
0000
0000
0180
F7E0
FFF0
FFF8
F878
F038
F038
F038
F038
F038
F038
F038
F038
F038
F038
F038
ENDCHAR
STARTCHAR Ncedilla
ENCODING 325
SWIDTH 844 0
DWIDTH 27 0
BBX 21 34 3 -9
BITMAP
800000
C00078
E00078
F00078
F80078
FC0078
FE0078
FF0078
FF8078
F7C078
F3E078
F1F078
F0F878
F07C78
F03C78
F01E78
F00F78
F007F8
F007F8
F003F8
F001F8
F000F8
F00078
F00038
F00018
000008
007800
007800
007800
007800
001800
003800
003800
003000
ENDCHAR
STARTCHAR ncedilla
ENCODING 326
SWIDTH 548 0
DWIDTH 18 0
BBX 13 25 2 -9
BITMAP
0180
F7E0
FFF0
FFF8
F878
F038
F038
F038
F038
F038
F038
F038
F038
F038
F038
F038
0000
0780
0780
0780
0780
0180
0380
0300
0300
ENDCHAR
STARTCHAR Ncaron
ENCODING 327
SWIDTH 844 0
DWIDTH 27 0
BBX 21 34 3 -1
BITMAP
010600
078F00
03DE00
01FC00
00F800
007000
002000
000000
800000
C00078
E00078
F00078
F80078
FC0078
FE0078
FF0078
FF8078
F7C078
F3E078
F1F078
F0F878
F07C78
F03C78
F01E78
F00F78
F007F8
F007F8
F003F8
F001F8
F000F8
F00078
F00038
F00018
000008
ENDCHAR
STARTCHAR ncaron
ENCODING 328
SWIDTH 548 0
DWIDTH 18 0
BBX 13 24 2 0
BITMAP
1860
3CF8
1FE0
0FC0
0780
0300
0000
0000
0180
F7E0
FFF0
FFF8
F878
F038
F038
F038
F038
F038
F038
F038
F038
F038
F038
F038
ENDCHAR
STARTCHAR quoterightn
ENCODING 329
SWIDTH 777 0
DWIDTH 25 0
BBX 19 25 2 0
BITMAP
180000
1C0000
3C0000
380000
380000
700000
700000
E00000
E00000
400600
03DFC0
03FFC0
03FFE0
03E1E0
03C0E0
03C0E0
03C0E0
03C0E0
03C0E0
03C0E0
03C0E0
03C0E0
03C0E0
03C0E0
03C0E0
ENDCHAR
STARTCHAR Omacron
ENCODING 332
SWIDTH 893 0
DWIDTH 29 0
BBX 25 30 2 0
BITMAP
01FFC000
01FFC000
01FFC000
00000000
00000000
00080000
01FFC000
07FFE000
0FFFF800
1F80FC00
3E003C00
7C001E00
78000F00
F0000F00
F0000700
F0000780
E0000780
E0000780
E0000780
E0000780
F0000780
F0000700
F8000F00
78001F00
7C001E00
3E007C00
1F81F800
0FFFF000
07FFE000
01FF8000
ENDCHAR
STARTCHAR omacron
ENCODING 333
SWIDTH 601 0
DWIDTH 19 0
BBX 17 21 1 0
BITMAP
1FFC00
1FFC00
1FFC00
000000
000000
01C000
0FF800
1FFC00
3FFE00
7C1F00
780F00
700780
700780
F00780
700780
700700
780F00
3C1F00
3FFE00
1FFC00
07F000
ENDCHAR
STARTCHAR Obreve
ENCODING 334
SWIDTH 893 0
DWIDTH 29 0
BBX 25 32 2 0
BITMAP
01C1C000
01C1C000
01F78000
00FF8000
007F0000
00000000
00000000
00080000
01FFC000
07FFE000
0FFFF800
1F80FC00
3E003C00
7C001E00
78000F00
F0000F00
F0000700
F0000780
E0000780
E0000780
E0000780
E0000780
F0000780
F0000700
F8000F00
78001F00
7C001E00
3E007C00
1F81F800
0FFFF000
07FFE000
01FF8000
ENDCHAR
STARTCHAR obreve
ENCODING 335
SWIDTH 601 0
DWIDTH 19 0
BBX 17 23 1 0
BITMAP
1C1C00
1C1C00
1F7C00
0FF800
07F000
000000
000000
01C000
0FF800
1FFC00
3FFE00
7C1F00
780F00
700780
700780
F00780
700780
700700
780F00
3C1F00
3FFE00
1FFC00
07F000
ENDCHAR
STARTCHAR Ohungarumlaut
ENCODING 336
SWIDTH 893 0
DWIDTH 29 0
BBX 25 33 2 0
BITMAP
00102000
003C7000
007EF800
00F9F000
01F3C000
01C38000
00800000
00000000
00080000
01FFC000
07FFE000
0FFFF800
1F80FC00
3E003C00
7C001E00
78000F00
F0000F00
F0000700
F0000780
E0000780
E0000780
E0000780
E0000780
F0000780
F0000700
F8000F00
78001F00
7C001E00
3E007C00
1F81F800
0FFFF000
07FFE000
01FF8000
ENDCHAR
STARTCHAR ohungarumlaut
ENCODING 337
SWIDTH 601 0
DWIDTH 19 0
BBX 17 24 1 0
BITMAP
018600
03CF00
078E00
0F1C00
0E3800
0C3000
000000
000000
01C000
0FF800
1FFC00
3FFE00
7C1F00
780F00
700780
700780
F00780
700780
700700
780F00
3C1F00
3FFE00
1FFC00
07F000
ENDCHAR
STARTCHAR OE
ENCODING 338
SWIDTH 1183 0
DWIDTH 38 0
BBX 34 25 2 0
BITMAP
0018000000
01FF87FFC0
07FFE7FFC0
0FFFF7FFC0
1F81FF8000
3E007F8000
7C003F8000
78001F8000
F0000F8000
F0000F8000
F00007FFC0
E00007FFC0
E00007FFC0
E00007FFC0
E000078000
F000078000
F0000F8000
F8000F8000
78001F8000
7C003F8000
3E007F8000
1F81FF8000
0FFFF7FFC0
07FFE7FFC0
01FF87FFC0
ENDCHAR
STARTCHAR oe
ENCODING 339
SWIDTH 953 0
DWIDTH 31 0
BBX 28 16 1 0
BITMAP
01C01C00
0FF87F80
1FFDFFC0
3FFFFFE0
7C0FC1E0
780F80F0
7007FFF0
7007FFF0
F007FFF0
70078000
70078000
780FC0E0
3C1FE1F0
3FFFFFE0
1FFCFFC0
07F07F80
ENDCHAR
STARTCHAR Racute
ENCODING 340
SWIDTH 602 0
DWIDTH 19 0
BBX 15 33 3 0
BITMAP
0100
0380
07E0
0F80
1F00
1C00
0800
0000
0000
FF80
FFE0
FFF0
F1F8
F078
F038
F038
F038
F038
F078
F0F8
FFF0
FFE0
FF80
FF80
F780
F3C0
F1E0
F1F0
F0F0
F078
F07C
F03C
F01E
ENDCHAR
STARTCHAR racute
ENCODING 341
SWIDTH 374 0
DWIDTH 12 0
BBX 10 24 2 0
BITMAP
0380
07C0
0780
0F00
1E00
1800
0000
0000
0100
FFC0
FFC0
FF80
F800
F000
F000
F000
F000
F000
F000
F000
F000
F000
F000
F000
ENDCHAR
STARTCHAR Rcedilla
ENCODING 342
SWIDTH 602 0
DWIDTH 19 0
BBX 15 33 3 -9
BITMAP
FF80
FFE0
FFF0
F1F8
F078
F038
F038
F038
F038
F078
F0F8
FFF0
FFE0
FF80
FF80
F780
F3C0
F1E0
F1F0
F0F0
F078
F07C
F03C
F01E
0000
0700
0700
0700
0700
0300
0300
0300
0700
ENDCHAR
STARTCHAR rcedilla
ENCODING 343
SWIDTH 374 0
DWIDTH 12 0
BBX 10 25 2 -9
BITMAP
0100
FFC0
FFC0
FF80
F800
F000
F000
F000
F000
F000
F000
F000
F000
F000
F000
F000
0000
3C00
3C00
3C00
3C00
1C00
1C00
1800
1800
ENDCHAR
STARTCHAR Rcaron
ENCODING 344
SWIDTH 602 0
DWIDTH 19 0
BBX 15 33 3 0
BITMAP
20C0
F1E0
7BC0
3F80
1F00
0E00
0000
0000
0000
FF80
FFE0
FFF0
F1F8
F078
F038
F038
F038
F038
F078
F0F8
FFF0
FFE0
FF80
FF80
F780
F3C0
F1E0
F1F0
F0F0
F078
F07C
F03C
F01E
ENDCHAR
STARTCHAR rcaron
ENCODING 345
SWIDTH 374 0
DWIDTH 12 0
BBX 11 24 1 0
BITMAP
60C0
F1E0
7FC0
3F80
1F00
0E00
0000
0000
0080
7FE0
7FE0
7FC0
7C00
7800
7800
7800
7800
7800
7800
7800
7800
7800
7800
7800
ENDCHAR
STARTCHAR Sacute
ENCODING 346
SWIDTH 583 0
DWIDTH 19 0
BBX 15 32 2 0
BITMAP
0070
00F8
01E0
03C0
0700
0200
0000
0180
0FF0
1FF8
3FFC
7C3C
7818
7000
7800
7800
7E00
3F80
1FE0
07F8
01FC
007C
001E
001E
001E
F01E
F01E
F01E
783C
7FFC
3FF8
1FE0
ENDCHAR
STARTCHAR sacute
ENCODING 347
SWIDTH 405 0
DWIDTH 13 0
BBX 10 24 2 0
BITMAP
0380
07C0
0780
0F00
1E00
1800
0000
0000
0C00
3F00
7F80
FF80
E200
F000
FC00
7F00
3F80
0FC0
03C0
03C0
E3C0
FFC0
FF80
7F00
ENDCHAR
STARTCHAR Scircumflex
ENCODING 348
SWIDTH 583 0
DWIDTH 19 0
BBX 15 33 2 0
BITMAP
0180
03C0
07E0
1FF0
3E78
1C30
0000
0000
0180
0FF0
1FF8
3FFC
7C3C
7818
7000
7800
7800
7E00
3F80
1FE0
07F8
01FC
007C
001E
001E
001E
F01E
F01E
F01E
783C
7FFC
3FF8
1FE0
ENDCHAR
STARTCHAR scircumflex
ENCODING 349
SWIDTH 405 0
DWIDTH 13 0
BBX 11 24 1 0
BITMAP
0600
1F00
3F80
7FC0
F9E0
70C0
0000
0000
0600
1F80
3FC0
7FC0
7100
7800
7E00
3F80
1FC0
07E0
01E0
01E0
71E0
7FE0
7FC0
3F80
ENDCHAR
STARTCHAR Scedilla
ENCODING 350
SWIDTH 583 0
DWIDTH 19 0
BBX 15 33 2 -8
BITMAP
0180
0FF0
1FF8
3FFC
7C3C
7818
7000
7800
7800
7E00
3F80
1FE0
07F8
01FC
007C
001E
001E
001E
F01E
F01E
F01E
783C
7FFC
3FF8
1FE0
0000
0000
0180
03C0
0380
0700
0F00
0200
ENDCHAR
STARTCHAR scedilla
ENCODING 351
SWIDTH 405 0
DWIDTH 13 0
BBX 10 24 2 -8
BITMAP
0C00
3F00
7F80
FF80
E200
F000
FC00
7F00
3F80
0FC0
03C0
03C0
E3C0
FFC0
FF80
7F00
0000
0000
0C00
1E00
1C00
3C00
3800
1000
ENDCHAR
STARTCHAR Scaron
ENCODING 352
SWIDTH 583 0
DWIDTH 19 0
BBX 15 33 2 0
BITMAP
0830
3C78
1EF0
0FE0
07C0
0380
0100
0000
0180
0FF0
1FF8
3FFC
7C3C
7818
7000
7800
7800
7E00
3F80
1FE0
07F8
01FC
007C
001E
001E
001E
F01E
F01E
F01E
783C
7FFC
3FF8
1FE0
ENDCHAR
STARTCHAR scaron
ENCODING 353
SWIDTH 405 0
DWIDTH 13 0
BBX 11 24 1 0
BITMAP
60C0
F1E0
7FC0
3F80
1F00
0E00
0000
0000
0600
1F80
3FC0
7FC0
7100
7800
7E00
3F80
1FC0
07E0
01E0
01E0
71E0
7FE0
7FC0
3F80
ENDCHAR
STARTCHAR Tcedilla
ENCODING 354
SWIDTH 482 0
DWIDTH 15 0
BBX 15 33 0 -9
BITMAP
FFFE
FFFE
FFFE
03C0
03C0
03C0
03C0
03C0
03C0
03C0
03C0
03C0
03C0
03C0
03C0
03C0
03C0
03C0
03C0
03C0
03C0
03C0
03C0
03C0
0000
03C0
03C0
03C0
03C0
01C0
01C0
0180
0180
ENDCHAR
STARTCHAR tcedilla
ENCODING 355
SWIDTH 273 0
DWIDTH 9 0
BBX 8 30 1 -9
BITMAP
78
78
78
78
78
78
FF
FF
FF
78
78
78
78
78
78
78
78
78
78
78
78
00
78
78
78
78
18
38
38
30
ENDCHAR
STARTCHAR Tcaron
ENCODING 356
SWIDTH 482 0
DWIDTH 15 0
BBX 15 33 0 0
BITMAP
0830
3C78
1EF0
0FE0
07C0
0380
0000
0000
0000
FFFE
FFFE
FFFE
03C0
03C0
03C0
03C0
03C0
03C0
03C0
03C0
03C0
03C0
03C0
03C0
03C0
03C0
03C0
03C0
03C0
03C0
03C0
03C0
03C0
ENDCHAR
STARTCHAR tcaron
ENCODING 357
SWIDTH 376 0
DWIDTH 12 0
BBX 11 24 1 0
BITMAP
01E0
01E0
01E0
79E0
78E0
78C0
78C0
7840
7800
FF00
FF00
FF00
7800
7800
7800
7800
7800
7800
7800
7800
7800
7800
7800
7800
ENDCHAR
STARTCHAR Tbar
ENCODING 358
SWIDTH 482 0
DWIDTH 15 0
BBX 15 24 0 0
BITMAP
FFFE
FFFE
FFFE
03C0
03C0
03C0
03C0
03C0
03C0
0FE0
0FE0
0FE0
03C0
03C0
03C0
03C0
03C0
03C0
03C0
03C0
03C0
03C0
03C0
03C0
ENDCHAR
STARTCHAR tbar
ENCODING 359
SWIDTH 273 0
DWIDTH 9 0
BBX 8 21 1 0
BITMAP
78
78
78
78
78
78
FF
FF
FF
78
78
78
FE
FE
FE
78
78
78
78
78
78
ENDCHAR
STARTCHAR Utilde
ENCODING 360
SWIDTH 738 0
DWIDTH 24 0
BBX 18 30 3 0
BITMAP
0FC600
1FFE00
1FFE00
087C00
000000
000000
F003C0
F003C0
F003C0
F003C0
F003C0
F003C0
F003C0
F003C0
F003C0
F003C0
F003C0
F003C0
F003C0
F003C0
F003C0
F003C0
F003C0
F003C0
F00780
780780
7C1F00
3FFF00
1FFE00
07F800
ENDCHAR
STARTCHAR utilde
ENCODING 361
SWIDTH 544 0
DWIDTH 17 0
BBX 13 22 2 0
BITMAP
3F18
7FF8
7FF8
21F0
0000
0000
0000
F038
F038
F038
F038
F038
F038
F038
F038
F038
F038
F078
7878
7FF0
3FF0
1FC0
ENDCHAR
STARTCHAR Umacron
ENCODING 362
SWIDTH 738 0
DWIDTH 24 0
BBX 18 30 3 0
BITMAP
1FFC00
1FFC00
1FFC00
000000
000000
000000
F003C0
F003C0
F003C0
F003C0
F003C0
F003C0
F003C0
F003C0
F003C0
F003C0
F003C0
F003C0
F003C0
F003C0
F003C0
F003C0
F003C0
F003C0
F00780
780780
7C1F00
3FFF00
1FFE00
07F800
ENDCHAR
STARTCHAR umacron
ENCODING 363
SWIDTH 544 0
DWIDTH 17 0
BBX 13 21 2 0
BITMAP
7FF0
7FF0
7FF0
0000
0000
0000
F038
F038
F038
F038
F038
F038
F038
F038
F038
F038
F078
7878
7FF0
3FF0
1FC0
ENDCHAR
STARTCHAR Ubreve
ENCODING 364
SWIDTH 738 0
DWIDTH 24 0
BBX 18 32 3 0
BITMAP
1C0C00
1E1C00
0F3C00
0FF800
03F000
000000
000000
000000
F003C0
F003C0
F003C0
F003C0
F003C0
F003C0
F003C0
F003C0
F003C0
F003C0
F003C0
F003C0
F003C0
F003C0
F003C0
F003C0
F003C0
F003C0
F00780
780780
7C1F00
3FFF00
1FFE00
07F800
ENDCHAR
STARTCHAR ubreve
ENCODING 365
SWIDTH 544 0
DWIDTH 17 0
BBX 13 23 2 0
BITMAP
7038
3870
3CF0
1FF0
0FC0
0000
0000
0000
F038
F038
F038
F038
F038
F038
F038
F038
F038
F038
F078
7878
7FF0
3FF0
1FC0
ENDCHAR
STARTCHAR Uring
ENCODING 366
SWIDTH 738 0
DWIDTH 24 0
BBX 18 33 3 0
BITMAP
01E000
03F000
033000
021000
033000
03F000
00C000
000000
000000
F003C0
F003C0
F003C0
F003C0
F003C0
F003C0
F003C0
F003C0
F003C0
F003C0
F003C0
F003C0
F003C0
F003C0
F003C0
F003C0
F003C0
F003C0
F00780
780780
7C1F00
3FFF00
1FFE00
07F800
ENDCHAR
STARTCHAR uring
ENCODING 367
SWIDTH 544 0
DWIDTH 17 0
BBX 13 24 2 0
BITMAP
0780
0FC0
18C0
18C0
0FC0
0F80
0000
0000
0000
F038
F038
F038
F038
F038
F038
F038
F038
F038
F038
F078
7878
7FF0
3FF0
1FC0
ENDCHAR
STARTCHAR Uhungarumlaut
ENCODING 368
SWIDTH 738 0
DWIDTH 24 0
BBX 18 33 3 0
BITMAP
008000
01C380
03E7C0
07CF00
0F1E00
0E3800
001000
000000
000000
F003C0
F003C0
F003C0
F003C0
F003C0
F003C0
F003C0
F003C0
F003C0
F003C0
F003C0
F003C0
F003C0
F003C0
F003C0
F003C0
F003C0
F003C0
F00780
780780
7C1F00
3FFF00
1FFE00
07F800
ENDCHAR
STARTCHAR uhungarumlaut
ENCODING 369
SWIDTH 544 0
DWIDTH 17 0
BBX 15 24 2 0
BITMAP
060C
0F1E
0E3C
1C38
3870
3060
0000
0000
0000
F038
F038
F038
F038
F038
F038
F038
F038
F038
F038
F078
7878
7FF0
3FF0
1FC0
ENDCHAR
STARTCHAR Uogonek
ENCODING 370
SWIDTH 738 0
DWIDTH 24 0
BBX 18 32 3 -8
BITMAP
F003C0
F003C0
F003C0
F003C0
F003C0
F003C0
F003C0
F003C0
F003C0
F003C0
F003C0
F003C0
F003C0
F003C0
F003C0
F003C0
F003C0
F003C0
F00780
780780
7C1F00
3FFF00
1FFE00
07F800
00E000
01C000
038000
038000
078800
03F000
03F000
00E000
ENDCHAR
STARTCHAR uogonek
ENCODING 371
SWIDTH 544 0
DWIDTH 17 0
BBX 13 23 2 -8
BITMAP
F038
F038
F038
F038
F038
F038
F038
F038
F038
F038
F078
7878
7FF0
3FF0
1FC0
0380
0F00
0E00
1C00
1E00
1FC0
0FC0
0780
ENDCHAR
STARTCHAR Wcircumflex
ENCODING 372
SWIDTH 1060 0
DWIDTH 34 0
BBX 34 34 0 -1
BITMAP
0000C00000
0001E00000
0003F00000
0007F80000
000F3C0000
0006180000
0000000000
0000000000
0000000000
F000C003C0
7800C00780
7801C00780
3801E00F00
3C01E00F00
3C03E00E00
1E03F01E00
1E03F01E00
0E07F03C00
0F07783C00
0F0F387800
078F3C7800
078E3C7800
039E1CF000
03DE1EF000
03DC1FE000
01FC0FE000
01F80FC000
00F80FC000
00F807C000
00F0078000
0070038000
0070030000
0020030000
0020000000
ENDCHAR
STARTCHAR wcircumflex
ENCODING 373
SWIDTH 773 0
DWIDTH 25 0
BBX 23 25 1 -1
BITMAP
003000
007C00
00FE00
01FF00
03CF80
018300
000000
000000
001000
E0301E
F0381E
F0383C
787C3C
787C38
3CFC78
3CFE70
1EEEF0
1FCFE0
0FC7E0
0FC7C0
0783C0
078380
030380
030100
000100
ENDCHAR
STARTCHAR Ycircumflex
ENCODING 374
SWIDTH 600 0
DWIDTH 19 0
BBX 19 33 0 0
BITMAP
00E000
01F000
03F800
07BC00
0F1E00
060C00
000000
000000
000000
F001E0
7803C0
7C03C0
3C0780
1E0F80
1E0F00
0F1F00
0F1E00
07BC00
07FC00
03F800
01F800
01F000
00E000
00E000
00E000
00E000
00E000
00E000
00E000
00E000
00E000
00E000
00E000
ENDCHAR
STARTCHAR ycircumflex
ENCODING 375
SWIDTH 543 0
DWIDTH 17 0
BBX 16 32 1 -8
BITMAP
0180
03C0
07E0
0FF0
1E78
0C30
0000
0000
0000
F00F
F01E
781E
783C
3C3C
3C78
1E78
1EF0
0FF0
07E0
07E0
03C0
03C0
0780
0780
0F00
0F00
1E00
1E00
3C00
3C00
7800
F800
ENDCHAR
STARTCHAR Ydieresis
ENCODING 376
SWIDTH 600 0
DWIDTH 19 0
BBX 19 31 0 0
BITMAP
070E00
0F1E00
0F1E00
0F1E00
000000
000000
000000
F001E0
7803C0
7C03C0
3C0780
1E0F80
1E0F00
0F1F00
0F1E00
07BC00
07FC00
03F800
01F800
01F000
00E000
00E000
00E000
00E000
00E000
00E000
00E000
00E000
00E000
00E000
00E000
ENDCHAR
STARTCHAR Zacute
ENCODING 377
SWIDTH 625 0
DWIDTH 20 0
BBX 18 33 1 0
BITMAP
001000
003C00
007E00
00F800
01F000
01C000
008000
000000
000000
3FFFC0
3FFF80
3FFF00
000F00
001E00
001E00
003C00
007C00
007800
00F000
00F000
01E000
01E000
03C000
07C000
078000
0F0000
0F0000
1E0000
1E0000
3C0000
7FFFC0
7FFFC0
FFFFC0
ENDCHAR
STARTCHAR zacute
ENCODING 378
SWIDTH 543 0
DWIDTH 17 0
BBX 16 24 1 0
BITMAP
0038
007C
00F8
00F0
01E0
0180
0000
0000
0000
7FFF
7FFE
7FFC
0078
00F0
01E0
03E0
07C0
0780
0F00
1E00
3C00
7FFE
7FFE
FFFE
ENDCHAR
STARTCHAR Zdotaccent
ENCODING 379
SWIDTH 625 0
DWIDTH 20 0
BBX 18 31 1 0
BITMAP
00E000
01F000
01F000
00F000
000000
000000
000000
3FFFC0
3FFF80
3FFF00
000F00
001E00
001E00
003C00
007C00
007800
00F000
00F000
01E000
01E000
03C000
07C000
078000
0F0000
0F0000
1E0000
1E0000
3C0000
7FFFC0
7FFFC0
FFFFC0
ENDCHAR
STARTCHAR zdotaccent
ENCODING 380
SWIDTH 543 0
DWIDTH 17 0
BBX 16 23 1 0
BITMAP
0080
01C0
03E0
03E0
01C0
0000
0000
0000
7FFF
7FFE
7FFC
0078
00F0
01E0
03E0
07C0
0780
0F00
1E00
3C00
7FFE
7FFE
FFFE
ENDCHAR
STARTCHAR Zcaron
ENCODING 381
SWIDTH 625 0
DWIDTH 20 0
BBX 18 33 1 0
BITMAP
020C00
0F1E00
07BC00
03F800
01F000
00E000
000000
000000
000000
3FFFC0
3FFF80
3FFF00
000F00
001E00
001E00
003C00
007C00
007800
00F000
00F000
01E000
01E000
03C000
07C000
078000
0F0000
0F0000
1E0000
1E0000
3C0000
7FFFC0
7FFFC0
FFFFC0
ENDCHAR
STARTCHAR zcaron
ENCODING 382
SWIDTH 543 0
DWIDTH 17 0
BBX 16 24 1 0
BITMAP
0C18
1E3C
0FF8
07F0
03E0
01C0
0000
0000
0000
7FFF
7FFE
7FFC
0078
00F0
01E0
03E0
07C0
0780
0F00
1E00
3C00
7FFE
7FFE
FFFE
ENDCHAR
STARTCHAR florin
ENCODING 402
SWIDTH 641 0
DWIDTH 21 0
BBX 17 31 1 -6
BITMAP
001F80
003F80
007F80
007800
007800
00F000
00F000
00F000
00F000
00E000
07FE00
0FFE00
0FFE00
01E000
01E000
01C000
01C000
03C000
03C000
03C000
03C000
038000
078000
078000
078000
070000
0F0000
7F0000
FE0000
FC0000
E00000
ENDCHAR
STARTCHAR Scommaaccent
ENCODING 536
SWIDTH 583 0
DWIDTH 19 0
BBX 15 33 2 -8
BITMAP
0180
0FF0
1FF8
3FFC
7C3C
7818
7000
7800
7800
7E00
3F80
1FE0
07F8
01FC
007C
001E
001E
001E
F01E
F01E
F01E
783C
7FFC
3FF8
1FE0
0000
0000
0180
03C0
03C0
0780
0F00
0600
ENDCHAR
STARTCHAR scommaaccent
ENCODING 537
SWIDTH 405 0
DWIDTH 13 0
BBX 10 24 2 -8
BITMAP
0C00
3F00
7F80
FF80
E200
F000
FC00
7F00
3F80
0FC0
03C0
03C0
E3C0
FFC0
FF80
7F00
0000
0000
0C00
1E00
1C00
3C00
3800
1000
ENDCHAR
STARTCHAR Tcedilla.dup1
ENCODING 538
SWIDTH 482 0
DWIDTH 15 0
BBX 15 33 0 -9
BITMAP
FFFE
FFFE
FFFE
03C0
03C0
03C0
03C0
03C0
03C0
03C0
03C0
03C0
03C0
03C0
03C0
03C0
03C0
03C0
03C0
03C0
03C0
03C0
03C0
03C0
0000
03C0
03C0
03C0
03C0
01C0
01C0
0180
0180
ENDCHAR
STARTCHAR tcedilla.dup2
ENCODING 539
SWIDTH 273 0
DWIDTH 9 0
BBX 8 30 1 -9
BITMAP
78
78
78
78
78
78
FF
FF
FF
78
78
78
78
78
78
78
78
78
78
78
78
00
78
78
78
78
18
38
38
30
ENDCHAR
STARTCHAR quoteleft
ENCODING 699
SWIDTH 326 0
DWIDTH 10 0
BBX 6 10 2 15
BITMAP
0C
1C
1C
3C
38
78
70
F0
F0
20
ENDCHAR
STARTCHAR quoteright
ENCODING 700
SWIDTH 326 0
DWIDTH 10 0
BBX 6 10 2 15
BITMAP
18
1C
3C
38
38
70
70
E0
E0
40
ENDCHAR
STARTCHAR circumflex
ENCODING 710
SWIDTH 565 0
DWIDTH 18 0
BBX 11 6 4 18
BITMAP
0C00
1E00
3F00
7F80
F3E0
6180
ENDCHAR
STARTCHAR caron
ENCODING 711
SWIDTH 565 0
DWIDTH 18 0
BBX 11 6 4 18
BITMAP
6180
F3E0
7F80
3F00
1E00
0C00
ENDCHAR
STARTCHAR macron.dup3
ENCODING 713
SWIDTH 565 0
DWIDTH 18 0
BBX 11 3 4 18
BITMAP
FFE0
FFE0
FFE0
ENDCHAR
STARTCHAR breve
ENCODING 728
SWIDTH 565 0
DWIDTH 18 0
BBX 12 5 3 18
BITMAP
E070
70E0
79E0
3FE0
1F80
ENDCHAR
STARTCHAR dotaccent
ENCODING 729
SWIDTH 565 0
DWIDTH 18 0
BBX 4 4 7 18
BITMAP
F0
F0
F0
F0
ENDCHAR
STARTCHAR ring
ENCODING 730
SWIDTH 565 0
DWIDTH 18 0
BBX 7 6 6 18
BITMAP
7C
EE
C6
C6
EE
7C
ENDCHAR
STARTCHAR ogonek
ENCODING 731
SWIDTH 650 0
DWIDTH 21 0
BBX 7 8 7 -8
BITMAP
1C
70
70
E0
F0
FE
7E
3C
ENDCHAR
STARTCHAR tilde
ENCODING 732
SWIDTH 565 0
DWIDTH 18 0
BBX 12 4 3 18
BITMAP
7E30
FFF0
FFF0
43E0
ENDCHAR
STARTCHAR hungarumlaut
ENCODING 733
SWIDTH 565 0
DWIDTH 18 0
BBX 13 6 5 18
BITMAP
1870
3C78
78F0
71E0
E1C0
C380
ENDCHAR
STARTCHAR gravecmb
ENCODING 768
SWIDTH 0 0
DWIDTH 0 0
BBX 7 6 -15 18
BITMAP
70
F8
7C
3C
0E
06
ENDCHAR
STARTCHAR acutecmb
ENCODING 769
SWIDTH 0 0
DWIDTH 0 0
BBX 7 6 -10 18
BITMAP
18
3E
7C
78
E0
C0
ENDCHAR
STARTCHAR circumflexcmb
ENCODING 770
SWIDTH 0 0
DWIDTH 0 0
BBX 10 6 -14 18
BITMAP
0C00
1E00
3F00
7F80
F3C0
6180
ENDCHAR
STARTCHAR tildecmb
ENCODING 771
SWIDTH 0 0
DWIDTH 0 0
BBX 12 4 -15 18
BITMAP
7E30
FFF0
FFF0
43E0
ENDCHAR
STARTCHAR macroncmb
ENCODING 772
SWIDTH 0 0
DWIDTH 0 0
BBX 11 3 -15 18
BITMAP
FFE0
FFE0
FFE0
ENDCHAR
STARTCHAR brevecmb
ENCODING 774
SWIDTH 0 0
DWIDTH 0 0
BBX 12 5 -15 18
BITMAP
E070
70E0
79E0
3FC0
1F80
ENDCHAR
STARTCHAR dotaccentcmb
ENCODING 775
SWIDTH 0 0
DWIDTH 0 0
BBX 4 4 -11 18
BITMAP
F0
F0
F0
F0
ENDCHAR
STARTCHAR dieresiscmb
ENCODING 776
SWIDTH 0 0
DWIDTH 0 0
BBX 11 4 -15 18
BITMAP
70E0
F9E0
79E0
70E0
ENDCHAR
STARTCHAR ringcmb
ENCODING 778
SWIDTH 0 0
DWIDTH 0 0
BBX 7 6 -12 18
BITMAP
7C
FC
C6
C6
EE
7C
ENDCHAR
STARTCHAR hungarumlautcmb
ENCODING 779
SWIDTH 0 0
DWIDTH 0 0
BBX 13 6 -13 18
BITMAP
1860
3C78
78F0
71E0
E1C0
C380
ENDCHAR
STARTCHAR caroncmb
ENCODING 780
SWIDTH 0 0
DWIDTH 0 0
BBX 10 6 -14 18
BITMAP
6180
F3C0
7F80
3F00
1E00
0C00
ENDCHAR
STARTCHAR commaaccent
ENCODING 806
SWIDTH 0 0
DWIDTH 0 0
BBX 4 8 -6 -9
BITMAP
F0
F0
F0
F0
30
30
70
60
ENDCHAR
STARTCHAR cedillacmb
ENCODING 807
SWIDTH 0 0
DWIDTH 0 0
BBX 6 6 -12 -8
BITMAP
18
3C
38
70
F0
20
ENDCHAR
STARTCHAR ogonekcmb
ENCODING 808
SWIDTH 0 0
DWIDTH 0 0
BBX 7 8 -14 -8
BITMAP
1C
38
70
F0
F0
7E
7E
1C
ENDCHAR
STARTCHAR soliduslongoverlaycmb
ENCODING 824
SWIDTH 0 0
DWIDTH 0 0
BBX 16 32 -16 -6
BITMAP
000F
000F
000E
001E
001C
003C
0038
0078
0078
0070
00F0
00E0
01E0
01C0
03C0
0380
0380
0780
0700
0F00
0E00
1E00
1C00
1C00
3C00
3800
7800
7000
F000
E000
E000
E000
ENDCHAR
STARTCHAR Deltagreek
ENCODING 916
SWIDTH 753 0
DWIDTH 24 0
BBX 22 24 1 0
BITMAP
007800
00FC00
00FC00
00FC00
01FE00
01FE00
03CF00
03CF00
038700
078780
078780
070380
0F03C0
0F03C0
1E01E0
1E01E0
1E00E0
3C00F0
3C00F0
380078
780078
7FFFF8
FFFFFC
FFFFFC
ENDCHAR
STARTCHAR Omegagreek
ENCODING 937
SWIDTH 753 0
DWIDTH 24 0
BBX 22 25 1 0
BITMAP
007800
03FF00
0FFFC0
1FFFE0
3F03F0
3C00F0
7C0078
780078
F0003C
F0003C
F0003C
F0003C
F0003C
F0003C
F0003C
70003C
780038
780078
3C00F0
1C00E0
0E01C0
078780
FFCFFC
FFCFFC
FFCFFC
ENDCHAR
STARTCHAR pi
ENCODING 960
SWIDTH 702 0
DWIDTH 22 0
BBX 20 17 1 0
BITMAP
FFFFF0
FFFFF0
FFFFF0
1E03C0
1E03C0
1E03C0
1E03C0
1E03C0
1E03C0
1E03C0
1E03C0
1E03C0
1E03C0
1E03C0
1E03C0
1E03C0
1E03C0
ENDCHAR
STARTCHAR zerowidthjoiner
ENCODING 8205
SWIDTH 0 0
DWIDTH 0 0
BBX 1 1 0 0
BITMAP
00
ENDCHAR
STARTCHAR endash
ENCODING 8211
SWIDTH 641 0
DWIDTH 21 0
BBX 13 3 4 6
BITMAP
FFF8
FFF8
FFF8
ENDCHAR
STARTCHAR emdash
ENCODING 8212
SWIDTH 652 0
DWIDTH 21 0
BBX 21 3 0 6
BITMAP
FFFFF8
FFFFF8
FFFFF8
ENDCHAR
STARTCHAR quoteleft.dup4
ENCODING 8216
SWIDTH 326 0
DWIDTH 10 0
BBX 6 10 2 15
BITMAP
0C
1C
1C
3C
38
78
70
F0
F0
20
ENDCHAR
STARTCHAR quoteright.dup5
ENCODING 8217
SWIDTH 326 0
DWIDTH 10 0
BBX 6 10 2 15
BITMAP
18
1C
3C
38
38
70
70
E0
E0
40
ENDCHAR
STARTCHAR quotesinglbase
ENCODING 8218
SWIDTH 326 0
DWIDTH 10 0
BBX 6 10 2 -5
BITMAP
10
1C
1C
3C
38
78
70
70
E0
E0
ENDCHAR
STARTCHAR quotedblleft
ENCODING 8220
SWIDTH 521 0
DWIDTH 17 0
BBX 13 10 2 15
BITMAP
0C30
1C38
1C70
3C70
38E0
78E0
71E0
F1C0
F3C0
2080
ENDCHAR
STARTCHAR quotedblright
ENCODING 8221
SWIDTH 521 0
DWIDTH 17 0
BBX 13 10 2 15
BITMAP
1860
1C78
3C70
38F0
38E0
71E0
71C0
E1C0
E380
4180
ENDCHAR
STARTCHAR quotedblbase
ENCODING 8222
SWIDTH 521 0
DWIDTH 17 0
BBX 13 11 2 -6
BITMAP
1000
1C70
1C78
3C70
38F0
78E0
71E0
71C0
E1C0
E380
0080
ENDCHAR
STARTCHAR dagger
ENCODING 8224
SWIDTH 641 0
DWIDTH 21 0
BBX 13 32 4 -6
BITMAP
0F00
0F00
0F00
0F00
0F00
FFF8
FFF8
FFF8
FFF8
0F00
0F00
0F00
0F00
0F00
0F00
0F00
0F00
0F00
0F00
0F00
0F00
0F00
0F00
0F00
0F00
0F00
0F00
0F00
0F00
0F00
0F00
0F00
ENDCHAR
STARTCHAR daggerdbl
ENCODING 8225
SWIDTH 641 0
DWIDTH 21 0
BBX 13 32 4 -6
BITMAP
0F00
0F00
0F00
0F00
0F00
FFF8
FFF8
FFF8
FFF8
0F00
0F00
0F00
0F00
0F00
0F00
0F00
0F00
0F00
FFF8
FFF8
FFF8
0F00
0F00
0F00
0F00
0F00
0F00
0F00
0F00
0F00
0F00
0F00
ENDCHAR
STARTCHAR bullet
ENCODING 8226
SWIDTH 753 0
DWIDTH 24 0
BBX 10 10 7 7
BITMAP
3F00
7F80
7FC0
FFC0
FFC0
FFC0
FFC0
7F80
3F00
0C00
ENDCHAR
STARTCHAR ellipsis
ENCODING 8230
SWIDTH 944 0
DWIDTH 30 0
BBX 24 4 3 0
BITMAP
601806
F03C0F
F03C0F
F03C0F
ENDCHAR
STARTCHAR perthousand
ENCODING 8240
SWIDTH 1359 0
DWIDTH 44 0
BBX 41 24 1 0
BITMAP
1F8018000000
3FC018000000
79E030000000
F0F070000000
E07060000000
E070E0000000
E070C0000000
70E180000000
7FE380000000
3FC300000000
0F0700000000
000600000000
000C00000000
000C1F007C00
00187F81FF00
0038FBC1EF00
0030E0E38380
0070C0E38380
0061C0E30180
00C0C0E38380
00C0E0E38380
0180FBC3EF00
03807F81FF00
03003F007C00
ENDCHAR
STARTCHAR guilsinglleft
ENCODING 8249
SWIDTH 366 0
DWIDTH 12 0
BBX 7 16 2 0
BITMAP
04
06
0E
1E
3C
38
70
F0
E0
F0
78
3C
1C
0E
0E
04
ENDCHAR
STARTCHAR guilsinglright
ENCODING 8250
SWIDTH 366 0
DWIDTH 12 0
BBX 8 15 2 0
BITMAP
60
F0
78
38
1C
1E
0F
0F
0E
1E
3C
78
70
E0
20
ENDCHAR
STARTCHAR fraction
ENCODING 8260
SWIDTH 183 0
DWIDTH 6 0
BBX 16 24 -5 0
BITMAP
0007
0006
000E
000C
0018
0038
0030
0070
0060
00C0
00C0
0180
0380
0300
0700
0600
0C00
0C00
1800
3800
3000
7000
6000
C000
ENDCHAR
STARTCHAR Euro
ENCODING 8364
SWIDTH 617 0
DWIDTH 20 0
BBX 12 25 4 0
BITMAP
0010
01F0
07F0
0FF0
1F80
3E00
7C00
7800
F000
FFC0
FFC0
FFC0
0000
0000
0000
FFC0
FFC0
F000
7800
7C00
3E00
1F80
0FF0
07F0
01F0
ENDCHAR
STARTCHAR trademark
ENCODING 8482
SWIDTH 794 0
DWIDTH 25 0
BBX 24 15 0 10
BITMAP
000804
FF8804
FF8C0C
1C0C0C
1C1E1C
1C1E1E
1C1E3E
1C1F36
1C1B76
1C3BE6
1C39E7
1C31E7
1C30C3
1C30C3
1C7003
ENDCHAR
STARTCHAR Omega
ENCODING 8486
SWIDTH 753 0
DWIDTH 24 0
BBX 22 25 1 0
BITMAP
007800
03FF00
0FFFC0
1FFFE0
3F03F0
3C00F0
7C0078
780078
F0003C
F0003C
F0003C
F0003C
F0003C
F0003C
F0003C
70003C
780038
780078
3C00F0
1C00E0
0E01C0
078780
FFCFFC
FFCFFC
FFCFFC
ENDCHAR
STARTCHAR partialdiff
ENCODING 8706
SWIDTH 565 0
DWIDTH 18 0
BBX 16 24 1 0
BITMAP
3C00
3F00
3FC0
0FE0
01F8
0078
003C
001E
039E
1FEE
3FFF
7C3F
781F
F00F
F00F
F00F
F00F
F00F
F00F
700E
781E
3E7C
1FF8
0FF0
ENDCHAR
STARTCHAR Delta
ENCODING 8710
SWIDTH 753 0
DWIDTH 24 0
BBX 22 24 1 0
BITMAP
007800
00FC00
00FC00
00FC00
01FE00
01FE00
03CF00
03CF00
038700
078780
078780
070380
0F03C0
0F03C0
1E01E0
1E01E0
1E00E0
3C00F0
3C00F0
380078
780078
7FFFF8
FFFFFC
FFFFFC
ENDCHAR
STARTCHAR product
ENCODING 8719
SWIDTH 809 0
DWIDTH 26 0
BBX 24 36 1 -9
BITMAP
FFFFFF
FFFFFF
FFFFFF
1E0078
1E0078
1E0078
1E0078
1E0078
1E0078
1E0078
1E0078
1E0078
1E0078
1E0078
1E0078
1E0078
1E0078
1E0078
1E0078
1E0078
1E0078
1E0078
1E0078
1E0078
1E0078
1E0078
1E0078
1E0078
1E0078
1E0078
1E0078
1E0078
1E0078
FFC3FF
FFC3FF
FFC3FF
ENDCHAR
STARTCHAR summation
ENCODING 8721
SWIDTH 753 0
DWIDTH 24 0
BBX 21 36 1 -9
BITMAP
FFFFF8
FFFFF8
FFFFF8
F00078
F80078
780038
3C0038
3E0038
1E0038
0F0000
0F8000
078000
03C000
03E000
01E000
00F000
00F800
007800
00F000
01F000
01E000
03E000
03C000
078000
0F8000
0F0000
1F0000
1E0038
3C0038
3C0038
780038
F80038
F00038
FFFFF8
FFFFF8
FFFFF8
ENDCHAR
STARTCHAR minus
ENCODING 8722
SWIDTH 641 0
DWIDTH 21 0
BBX 17 3 2 11
BITMAP
FFFF80
FFFF80
FFFF80
ENDCHAR
STARTCHAR divisionslash
ENCODING 8725
SWIDTH 183 0
DWIDTH 6 0
BBX 16 24 -5 0
BITMAP
0007
0006
000E
000C
0018
0038
0030
0070
0060
00C0
00C0
0180
0380
0300
0700
0600
0C00
0C00
1800
3800
3000
7000
6000
C000
ENDCHAR
STARTCHAR bulletoperator
ENCODING 8729
SWIDTH 308 0
DWIDTH 10 0
BBX 4 4 3 10
BITMAP
F0
F0
F0
E0
ENDCHAR
STARTCHAR radical
ENCODING 8730
SWIDTH 753 0
DWIDTH 24 0
BBX 24 30 0 0
BITMAP
0003FF
0003FF
0003FF
000780
000780
000780
000780
000F00
000F00
000F00
001E00
001E00
001E00
001E00
003C00
003C00
FC3C00
FC3C00
FE3800
FE7800
1E7800
0E7800
0F7000
0F7000
0FF000
07F000
07E000
07E000
07E000
03E000
ENDCHAR
STARTCHAR infinity
ENCODING 8734
SWIDTH 753 0
DWIDTH 24 0
BBX 22 11 1 7
BITMAP
1F03E0
7F87F8
FFCFFC
F1FE3C
E0FC1C
E0781C
E0781C
F0FC3C
FFFFFC
7FCFF8
3F83F0
ENDCHAR
STARTCHAR integral
ENCODING 8747
SWIDTH 565 0
DWIDTH 18 0
BBX 12 36 3 -9
BITMAP
01F0
07F0
07F0
0F80
0F00
0F00
0F00
0F00
0F00
0F00
0F00
0F00
0F00
0F00
0F00
0F00
0F00
0F00
0F00
0F00
0F00
0F00
0F00
0F00
0F00
0F00
0F00
0F00
0F00
0F00
0F00
0F00
9F00
FE00
FE00
F800
ENDCHAR
STARTCHAR approxequal
ENCODING 8776
SWIDTH 565 0
DWIDTH 18 0
BBX 18 12 0 6
BITMAP
1F81C0
3FF780
7FFF80
71FF00
603E00
000000
0E0100
3FC1C0
7FFF80
7FFF80
E0FF00
601C00
ENDCHAR
STARTCHAR notequal
ENCODING 8800
SWIDTH 565 0
DWIDTH 18 0
BBX 16 17 1 4
BITMAP
0030
0038
0070
0070
FFFF
FFFF
FFFF
01C0
01C0
0380
FFFF
FFFF
FFFF
0E00
0E00
1C00
0C00
ENDCHAR
STARTCHAR lessequal
ENCODING 8804
SWIDTH 565 0
DWIDTH 18 0
BBX 16 22 1 1
BITMAP
0001
000F
003F
00FF
03F8
0FE0
3F80
FE00
F000
FC00
7F00
1FC0
07F8
01FE
007F
000F
0003
0000
0000
FFFF
FFFF
FFFF
ENDCHAR
STARTCHAR greaterequal
ENCODING 8805
SWIDTH 565 0
DWIDTH 18 0
BBX 16 22 1 1
BITMAP
C000
F000
FC00
7F00
1FC0
07F0
01FC
007F
000F
003F
00FE
03F8
0FE0
7F80
FE00
F800
C000
0000
0000
FFFF
FFFF
FFFF
ENDCHAR
STARTCHAR lozenge
ENCODING 9674
SWIDTH 753 0
DWIDTH 24 0
BBX 18 24 3 0
BITMAP
00C000
01E000
03F000
03F000
07F800
0FBC00
0F3E00
1E1E00
3C0F00
7C0F80
780780
F003C0
F003C0
780780
3C0F80
3C0F00
1E1E00
0F3C00
0FFC00
07F800
03F000
01F000
01E000
00C000
ENDCHAR
STARTCHAR apple
ENCODING 63743
SWIDTH 790 0
DWIDTH 25 0
BBX 22 27 2 -1
BITMAP
000300
000700
000F00
001E00
001E00
001C00
0F03C0
3FFFF0
7FFFF8
7FFFF0
FFFFE0
FFFFE0
FFFFC0
FFFFC0
FFFFC0
FFFFE0
FFFFE0
FFFFE0
FFFFF0
7FFFFC
7FFFFC
7FFFF8
3FFFF8
1FFFF0
1FFFE0
0FFFC0
030100
ENDCHAR
STARTCHAR fi
ENCODING 64257
SWIDTH 530 0
DWIDTH 17 0
BBX 14 27 1 0
BITMAP
0780
0FE0
1FF0
3EF8
3838
783C
783C
783C
7800
7800
7800
7800
FFBC
FFBC
FFBC
783C
783C
783C
783C
783C
783C
783C
783C
783C
783C
783C
783C
ENDCHAR
STARTCHAR fl
ENCODING 64258
SWIDTH 530 0
DWIDTH 17 0
BBX 14 27 1 0
BITMAP
0780
0FE0
1FF0
3EF8
3838
783C
783C
783C
783C
783C
783C
783C
FFBC
FFBC
FFBC
783C
783C
783C
783C
783C
783C
783C
783C
783C
783C
783C
783C
ENDCHAR
STARTCHAR Dieresis
ENCODING -1
SWIDTH 740 0
DWIDTH 24 0
BBX 12 4 6 27
BITMAP
70E0
F9F0
F9F0
70E0
ENDCHAR
STARTCHAR Grave
ENCODING -1
SWIDTH 740 0
DWIDTH 24 0
BBX 8 7 6 26
BITMAP
10
38
FC
3E
1F
07
02
ENDCHAR
STARTCHAR judge
ENCODING -1
SWIDTH 700 0
DWIDTH 22 0
BBX 6 6 10 -8
BITMAP
30
3C
78
F0
E0
C0
ENDCHAR
STARTCHAR up
ENCODING -1
SWIDTH 294 0
DWIDTH 9 0
BBX 7 7 3 26
BITMAP
08
1C
3E
7C
78
E0
40
ENDCHAR
STARTCHAR oak
ENCODING -1
SWIDTH 294 0
DWIDTH 9 0
BBX 7 6 -1 27
BITMAP
20
70
F8
7C
1E
0E
ENDCHAR
STARTCHAR uniE770
ENCODING -1
SWIDTH 249 0
DWIDTH 8 0
BBX 10 4 -1 18
BITMAP
F3C0
F3C0
F3C0
7380
ENDCHAR
STARTCHAR uniE773
ENCODING -1
SWIDTH 249 0
DWIDTH 8 0
BBX 6 6 3 18
BITMAP
18
3C
78
70
E0
C0
ENDCHAR
STARTCHAR uniE774
ENCODING -1
SWIDTH 249 0
DWIDTH 8 0
BBX 6 6 -1 18
BITMAP
60
F0
78
38
1C
0C
ENDCHAR
STARTCHAR uniE772
ENCODING -1
SWIDTH 249 0
DWIDTH 8 0
BBX 10 6 -1 18
BITMAP
0C00
1E00
3F00
7F80
F3C0
6180
ENDCHAR
STARTCHAR ash
ENCODING -1
SWIDTH 249 0
DWIDTH 8 0
BBX 4 8 2 16
BITMAP
F0
F0
F0
F0
30
70
60
20
ENDCHAR
STARTCHAR yea
ENCODING -1
SWIDTH 842 0
DWIDTH 27 0
BBX 12 6 8 26
BITMAP
E070
70E0
79E0
7FE0
3FC0
0400
ENDCHAR
STARTCHAR ice
ENCODING -1
SWIDTH 294 0
DWIDTH 9 0
BBX 10 7 0 26
BITMAP
0800
1E00
3F00
7F80
F7C0
E180
4000
ENDCHAR
STARTCHAR sure
ENCODING -1
SWIDTH 740 0
DWIDTH 24 0
BBX 10 7 7 26
BITMAP
0C00
1E00
3F00
7F80
F3C0
E1C0
0080
ENDCHAR
STARTCHAR hung
ENCODING -1
SWIDTH 740 0
DWIDTH 24 0
BBX 12 4 6 27
BITMAP
3C20
7FF0
FFF0
47E0
ENDCHAR
STARTCHAR fee
ENCODING -1
SWIDTH 740 0
DWIDTH 24 0
BBX 6 7 9 26
BITMAP
78
FC
CC
C4
CC
7C
30
ENDCHAR
STARTCHAR Caron
ENCODING -1
SWIDTH 625 0
DWIDTH 20 0
BBX 11 6 5 27
BITMAP
20C0
F1E0
7BC0
3F80
1F00
0E00
ENDCHAR
STARTCHAR Acute
ENCODING -1
SWIDTH 565 0
DWIDTH 18 0
BBX 8 6 7 26
BITMAP
0E
1F
3C
78
E0
40
ENDCHAR
STARTCHAR eat
ENCODING -1
SWIDTH 294 0
DWIDTH 9 0
BBX 10 4 0 27
BITMAP
E380
F3C0
F7C0
F3C0
ENDCHAR
STARTCHAR kick
ENCODING -1
SWIDTH 294 0
DWIDTH 9 0
BBX 5 4 2 27
BITMAP
70
F8
F8
78
ENDCHAR
STARTCHAR uniF6C3
ENCODING -1
SWIDTH 249 0
DWIDTH 8 0
BBX 4 8 2 -9
BITMAP
F0
F0
F0
F0
30
30
70
60
ENDCHAR
STARTCHAR uniE784
ENCODING -1
SWIDTH 249 0
DWIDTH 8 0
BBX 4 7 2 18
BITMAP
60
60
E0
E0
F0
F0
F0
ENDCHAR
STARTCHAR Hungarumlaut
ENCODING -1
SWIDTH 893 0
DWIDTH 29 0
BBX 14 7 9 26
BITMAP
0810
1E38
3F7C
7CF8
F9E0
E1C0
4000
ENDCHAR
STARTCHAR Macron
ENCODING -1
SWIDTH 565 0
DWIDTH 18 0
BBX 11 3 4 27
BITMAP
FFE0
FFE0
FFE0
ENDCHAR
STARTCHAR ooze
ENCODING -1
SWIDTH 294 0
DWIDTH 9 0
BBX 9 3 0 27
BITMAP
FF80
FF80
FF80
ENDCHAR
STARTCHAR uniE775
ENCODING -1
SWIDTH 249 0
DWIDTH 8 0
BBX 8 3 0 18
BITMAP
FF
FF
FF
ENDCHAR
STARTCHAR dotlessj
ENCODING -1
SWIDTH 331 0
DWIDTH 11 0
BBX 3 19 4 -6
BITMAP
E0
E0
E0
E0
E0
E0
E0
E0
E0
E0
E0
E0
E0
E0
E0
E0
E0
E0
E0
ENDCHAR
ENDFONT
